<svg xmlns="http://www.w3.org/2000/svg" xmlns:xlink="http://www.w3.org/1999/xlink" width="794" zoomAndPan="magnify" viewBox="0 0 595.5 842.249979" height="1123" preserveAspectRatio="xMidYMid meet" version="1.0"><defs><g/><clipPath id="8520c1a53c"><path d="M 78 0.703125 L 122 0.703125 L 122 72 L 78 72 Z M 78 0.703125 " clip-rule="nonzero"/></clipPath><clipPath id="ab98e2f25d"><path d="M 0.589844 273 L 93 273 L 93 386 L 0.589844 386 Z M 0.589844 273 " clip-rule="nonzero"/></clipPath><clipPath id="b47793aee5"><path d="M 74 367 L 230 367 L 230 475.097656 L 74 475.097656 Z M 74 367 " clip-rule="nonzero"/></clipPath><clipPath id="f494540e16"><path d="M 418 0.703125 L 462 0.703125 L 462 72 L 418 72 Z M 418 0.703125 " clip-rule="nonzero"/></clipPath><clipPath id="546bed89b3"><path d="M 447 273 L 539.542969 273 L 539.542969 386 L 447 386 Z M 447 273 " clip-rule="nonzero"/></clipPath><clipPath id="d6b7a14869"><path d="M 310 367 L 467 367 L 467 475.097656 L 310 475.097656 Z M 310 367 " clip-rule="nonzero"/></clipPath><clipPath id="0d69e2d080"><rect x="0" width="540" y="0" height="476"/></clipPath></defs><g transform="matrix(1, 0, 0, 1, 27, 180)"><g clip-path="url(#0d69e2d080)"><g clip-path="url(#8520c1a53c)"><path fill="#ffffff" d="M 98.207031 49.433594 C 111.984375 39.128906 120.863281 17.003906 121.339844 0.703125 C 104.527344 4.699219 86.5 28.882812 85.730469 46.5 C 85.417969 53.472656 82.238281 65.246094 78.550781 71.519531 C 82.601562 64.648438 91.832031 54.203125 98.207031 49.433594 Z M 98.207031 49.433594 " fill-opacity="1" fill-rule="nonzero"/></g><path fill="#ffffff" d="M 52.441406 127.988281 C 56.558594 120.742188 60.171875 113.351562 63.703125 105.910156 C 65.730469 101.613281 69.183594 99.746094 73.664062 98.417969 C 81.5 96.09375 89.46875 93.699219 96.71875 90.03125 C 108.207031 84.214844 114.792969 73.53125 121.527344 62.421875 C 95.511719 61.042969 78.949219 74.441406 66.140625 94.894531 C 72.4375 73.339844 81.273438 52.296875 67.875 30.066406 C 53.578125 47.589844 48 68.085938 57.761719 87.761719 C 60.996094 94.289062 61.472656 100.378906 58.902344 107.191406 C 56.339844 113.976562 54.566406 121.042969 52.441406 127.988281 Z M 52.441406 127.988281 " fill-opacity="1" fill-rule="nonzero"/><path fill="#ffffff" d="M 27.734375 219.886719 C 33.1875 225.652344 36.746094 231.945312 37.640625 240.019531 C 38.539062 248.175781 40.34375 256.230469 41.644531 263.679688 C 41.644531 255.21875 41.214844 246.195312 41.832031 237.246094 C 42.117188 233.160156 43.71875 228.707031 46.046875 225.332031 C 49.222656 220.683594 53.453125 216.6875 57.5625 212.761719 C 71.773438 199.210938 77.011719 181.945312 78.75 163.035156 C 70.34375 164.34375 60.304688 171.003906 54.433594 178.992188 C 45.277344 191.441406 42.070312 205.796875 40.902344 220.824219 C 40.769531 222.550781 40.847656 222.152344 40.550781 223.859375 C 40.183594 226.8125 39.59375 229.734375 39.070312 229.761719 C 38.53125 228.359375 37.390625 222.730469 37.230469 221.28125 C 36.246094 212.636719 35.230469 204.507812 34.253906 195.863281 C 32.164062 177.277344 22.894531 162.75 8.492188 150.398438 C 3.40625 169.960938 4.375 188.148438 15.597656 204.867188 C 19.1875 210.1875 23.324219 215.226562 27.734375 219.886719 Z M 27.734375 219.886719 " fill-opacity="1" fill-rule="nonzero"/><path fill="#ffffff" d="M 40.351562 173.253906 C 39.042969 181.574219 39.082031 193.234375 39.449219 201.355469 C 41.84375 192.011719 42.269531 179.726562 44.242188 170.351562 C 45.5625 164.097656 49.089844 159.554688 54.925781 156.707031 C 58.824219 154.800781 62.535156 152.515625 66.308594 150.359375 C 81.945312 141.394531 92.523438 128.339844 98.1875 110.597656 C 68.484375 112.410156 55.683594 132.382812 44.980469 156.726562 C 44.535156 154.507812 44.8125 152.542969 45.011719 150.570312 C 45.714844 143.710938 46.539062 136.871094 47.335938 130.019531 C 49.488281 111.460938 45.828125 94.460938 33.246094 79.335938 C 32.382812 80.882812 31.511719 82.238281 30.828125 83.691406 C 20.21875 106.074219 20.714844 127.914062 34.832031 148.644531 C 40.058594 156.320312 41.792969 164.136719 40.351562 173.253906 Z M 40.351562 173.253906 " fill-opacity="1" fill-rule="nonzero"/><path fill="#ffffff" d="M 31.445312 283.128906 C 39.382812 288.195312 44.117188 294.789062 46.425781 303.859375 C 48.53125 312.132812 53.226562 322.988281 56.8125 330.394531 C 55.304688 320.738281 50.796875 309.117188 48.890625 299.601562 C 47.621094 293.253906 49.101562 287.609375 53.398438 282.625 C 56.273438 279.296875 58.816406 275.683594 61.460938 272.160156 C 72.4375 257.558594 77.089844 241.175781 75.285156 222.378906 C 48.332031 235.9375 44.382812 259.648438 44.136719 286.601562 C 42.828125 284.714844 42.308594 282.777344 41.710938 280.851562 C 39.621094 274.183594 37.65625 267.476562 35.664062 260.777344 C 30.257812 242.628906 20.050781 228.253906 2.296875 219.183594 C 2.109375 220.96875 1.84375 222.578125 1.785156 224.210938 C 0.828125 249.304688 10.011719 269.449219 31.445312 283.128906 Z M 31.445312 283.128906 " fill-opacity="1" fill-rule="nonzero"/><g clip-path="url(#ab98e2f25d)"><path fill="#ffffff" d="M 73.445312 363.289062 C 78.398438 370.625 86.785156 379.578125 92.875 385.558594 C 88.019531 376.65625 79.546875 366.894531 74.355469 358.269531 C 70.894531 352.519531 70.363281 346.496094 72.808594 340.121094 C 74.449219 335.859375 75.664062 331.441406 77.023438 327.085938 C 82.628906 308.984375 81.414062 291.363281 73.074219 273.652344 C 51.519531 296.328125 55.96875 320.851562 65.171875 347.246094 C 63.238281 345.859375 62.042969 344.152344 60.777344 342.484375 C 56.40625 336.707031 52.136719 330.84375 47.847656 325.007812 C 36.207031 309.191406 21.214844 298.726562 0.703125 296.097656 C 1.140625 297.910156 1.453125 299.582031 1.964844 301.183594 C 9.839844 326.003906 25.863281 342.457031 51.566406 348.300781 C 61.082031 350.460938 68.027344 355.234375 73.445312 363.289062 Z M 73.445312 363.289062 " fill-opacity="1" fill-rule="nonzero"/></g><path fill="#ffffff" d="M 94.261719 406.667969 C 104.667969 405.984375 113.234375 408.753906 121.242188 415.339844 C 128.546875 421.34375 139.867188 427.949219 147.933594 432.21875 C 140.238281 424.578125 128.597656 417.167969 120.644531 409.921875 C 115.34375 405.09375 112.960938 399.078125 113.519531 391.808594 C 113.898438 386.953125 113.796875 382.054688 113.851562 377.171875 C 114.070312 356.921875 107.457031 339.25 93.511719 323.660156 C 78.351562 353.453125 90.390625 377.21875 107.867188 401.4375 C 105.457031 400.613281 103.71875 399.230469 101.917969 397.902344 C 95.675781 393.316406 89.515625 388.621094 83.339844 383.953125 C 66.59375 371.308594 48.046875 365.167969 26.246094 368.726562 C 27.25 370.445312 28.074219 372.054688 29.082031 373.546875 C 44.734375 396.570312 66.160156 408.527344 94.261719 406.667969 Z M 94.261719 406.667969 " fill-opacity="1" fill-rule="nonzero"/><g clip-path="url(#b47793aee5)"><path fill="#ffffff" d="M 214.183594 463.363281 C 208.9375 462.546875 203.691406 461.183594 198.492188 459.484375 C 196.003906 458.667969 193.527344 457.785156 191.0625 456.847656 C 188.566406 455.59375 186.175781 454.332031 183.976562 453.042969 C 177.238281 449.085938 173.347656 443.222656 172.316406 435.355469 C 171.621094 430.101562 170.417969 424.902344 169.375 419.691406 C 165.046875 398.082031 154.023438 380.738281 135.65625 367.273438 C 126.214844 402.425781 144.394531 425.023438 168.460938 446.882812 C 165.710938 446.542969 163.546875 445.460938 161.328125 444.457031 C 153.652344 440.972656 146.035156 437.359375 138.398438 433.78125 C 117.714844 424.078125 96.574219 421.714844 74.15625 430.414062 C 75.609375 432.019531 76.851562 433.554688 78.265625 434.910156 C 100.09375 455.90625 125.609375 463.820312 155.132812 455.507812 C 166.070312 452.433594 175.804688 453.460938 185.824219 458.675781 C 186.089844 458.820312 186.367188 458.953125 186.640625 459.09375 C 189.800781 461.003906 193.015625 462.851562 196.328125 464.578125 C 201.367188 467.214844 206.632812 469.578125 212.179688 471.429688 C 217.722656 473.289062 223.585938 474.589844 229.65625 475.082031 L 229.6875 464.019531 C 224.65625 464.445312 219.429688 464.199219 214.183594 463.363281 Z M 214.183594 463.363281 " fill-opacity="1" fill-rule="nonzero"/></g><g clip-path="url(#f494540e16)"><path fill="#ffffff" d="M 442.027344 49.433594 C 428.25 39.128906 419.371094 17.003906 418.894531 0.703125 C 435.707031 4.699219 453.734375 28.882812 454.503906 46.5 C 454.816406 53.472656 457.996094 65.246094 461.683594 71.519531 C 457.644531 64.648438 448.402344 54.203125 442.027344 49.433594 Z M 442.027344 49.433594 " fill-opacity="1" fill-rule="nonzero"/></g><path fill="#ffffff" d="M 487.792969 127.988281 C 483.675781 120.742188 480.0625 113.351562 476.53125 105.910156 C 474.503906 101.613281 471.050781 99.746094 466.570312 98.417969 C 458.734375 96.09375 450.765625 93.699219 443.515625 90.03125 C 432.027344 84.214844 425.441406 73.53125 418.707031 62.421875 C 444.722656 61.042969 461.285156 74.449219 474.09375 94.90625 C 467.796875 73.351562 458.960938 52.308594 472.359375 30.078125 C 486.65625 47.589844 492.234375 68.09375 482.472656 87.769531 C 479.238281 94.296875 478.761719 100.390625 481.332031 107.203125 C 483.894531 113.976562 485.667969 121.042969 487.792969 127.988281 Z M 487.792969 127.988281 " fill-opacity="1" fill-rule="nonzero"/><path fill="#ffffff" d="M 512.5 219.886719 C 507.046875 225.652344 503.488281 231.945312 502.59375 240.019531 C 501.695312 248.175781 499.890625 256.230469 498.589844 263.679688 C 498.589844 255.21875 499.019531 246.195312 498.402344 237.246094 C 498.117188 233.160156 496.515625 228.707031 494.191406 225.332031 C 491.011719 220.683594 486.78125 216.6875 482.671875 212.761719 C 468.460938 199.210938 463.222656 181.945312 461.484375 163.035156 C 469.890625 164.34375 479.929688 171.003906 485.800781 178.992188 C 494.957031 191.441406 498.164062 205.796875 499.332031 220.824219 C 499.464844 222.550781 499.386719 222.152344 499.683594 223.859375 C 500.054688 226.8125 500.640625 229.734375 501.164062 229.761719 C 501.703125 228.359375 502.84375 222.730469 503.003906 221.28125 C 503.988281 212.636719 505.003906 204.507812 505.984375 195.863281 C 508.070312 177.277344 517.339844 162.75 531.742188 150.398438 C 536.828125 169.960938 535.859375 188.148438 524.636719 204.867188 C 521.046875 210.1875 516.914062 215.226562 512.5 219.886719 Z M 512.5 219.886719 " fill-opacity="1" fill-rule="nonzero"/><path fill="#ffffff" d="M 499.882812 173.253906 C 501.191406 181.574219 501.152344 193.234375 500.785156 201.355469 C 498.390625 192.011719 497.964844 179.726562 495.992188 170.351562 C 494.671875 164.097656 491.144531 159.554688 485.308594 156.707031 C 481.410156 154.800781 477.699219 152.515625 473.925781 150.359375 C 458.289062 141.394531 447.710938 128.339844 442.046875 110.597656 C 471.75 112.410156 484.550781 132.382812 495.253906 156.726562 C 495.699219 154.507812 495.421875 152.542969 495.222656 150.570312 C 494.523438 143.710938 493.695312 136.871094 492.898438 130.019531 C 490.746094 111.460938 494.40625 94.460938 506.988281 79.335938 C 507.851562 80.882812 508.722656 82.238281 509.40625 83.691406 C 520.015625 106.074219 519.519531 127.914062 505.402344 148.644531 C 500.175781 156.320312 498.441406 164.136719 499.882812 173.253906 Z M 499.882812 173.253906 " fill-opacity="1" fill-rule="nonzero"/><path fill="#ffffff" d="M 508.800781 283.128906 C 500.859375 288.195312 496.125 294.789062 493.820312 303.859375 C 491.714844 312.132812 487.015625 322.988281 483.429688 330.394531 C 484.9375 320.738281 489.445312 309.117188 491.351562 299.601562 C 492.625 293.253906 491.144531 287.609375 486.847656 282.625 C 483.972656 279.296875 481.429688 275.683594 478.78125 272.160156 C 467.804688 257.558594 463.15625 241.175781 464.957031 222.378906 C 491.914062 235.9375 495.859375 259.648438 496.105469 286.601562 C 497.414062 284.714844 497.9375 282.777344 498.535156 280.851562 C 500.621094 274.183594 502.585938 267.476562 504.578125 260.777344 C 509.984375 242.628906 520.195312 228.253906 537.945312 219.183594 C 538.136719 220.96875 538.402344 222.578125 538.457031 224.210938 C 539.40625 249.304688 530.222656 269.449219 508.800781 283.128906 Z M 508.800781 283.128906 " fill-opacity="1" fill-rule="nonzero"/><g clip-path="url(#546bed89b3)"><path fill="#ffffff" d="M 466.789062 363.289062 C 461.835938 370.625 453.449219 379.578125 447.359375 385.558594 C 452.214844 376.65625 460.6875 366.894531 465.878906 358.269531 C 469.339844 352.519531 469.871094 346.496094 467.425781 340.121094 C 465.785156 335.859375 464.570312 331.441406 463.210938 327.085938 C 457.605469 308.984375 458.820312 291.363281 467.160156 273.652344 C 488.714844 296.328125 484.265625 320.851562 475.0625 347.246094 C 476.996094 345.859375 478.195312 344.152344 479.457031 342.484375 C 483.828125 336.707031 488.097656 330.84375 492.386719 325.007812 C 504.027344 309.191406 519.019531 298.726562 539.53125 296.097656 C 539.09375 297.910156 538.78125 299.582031 538.269531 301.183594 C 530.394531 326.003906 514.371094 342.457031 488.667969 348.300781 C 479.152344 350.460938 472.214844 355.234375 466.789062 363.289062 Z M 466.789062 363.289062 " fill-opacity="1" fill-rule="nonzero"/></g><path fill="#ffffff" d="M 445.972656 406.667969 C 435.566406 405.984375 427 408.753906 418.992188 415.339844 C 411.6875 421.34375 400.367188 427.949219 392.300781 432.21875 C 399.996094 424.578125 411.636719 417.167969 419.589844 409.921875 C 424.890625 405.09375 427.273438 399.078125 426.714844 391.808594 C 426.335938 386.953125 426.4375 382.054688 426.382812 377.171875 C 426.164062 356.921875 432.777344 339.25 446.722656 323.660156 C 461.882812 353.453125 449.84375 377.21875 432.367188 401.4375 C 434.777344 400.613281 436.515625 399.230469 438.316406 397.902344 C 444.558594 393.316406 450.71875 388.621094 456.894531 383.953125 C 473.640625 371.308594 492.1875 365.167969 513.988281 368.726562 C 512.984375 370.445312 512.160156 372.054688 511.152344 373.546875 C 495.507812 396.570312 474.074219 408.527344 445.972656 406.667969 Z M 445.972656 406.667969 " fill-opacity="1" fill-rule="nonzero"/><g clip-path="url(#d6b7a14869)"><path fill="#ffffff" d="M 326.050781 463.363281 C 331.296875 462.546875 336.542969 461.183594 341.742188 459.484375 C 344.230469 458.667969 346.707031 457.785156 349.171875 456.847656 C 351.667969 455.59375 354.058594 454.332031 356.257812 453.042969 C 362.996094 449.085938 366.886719 443.222656 367.917969 435.355469 C 368.613281 430.101562 369.816406 424.902344 370.859375 419.691406 C 375.1875 398.082031 386.210938 380.738281 404.578125 367.273438 C 414.019531 402.425781 395.839844 425.023438 371.773438 446.882812 C 374.523438 446.542969 376.6875 445.460938 378.90625 444.457031 C 386.582031 440.972656 394.199219 437.359375 401.835938 433.78125 C 422.519531 424.078125 443.660156 421.714844 466.078125 430.414062 C 464.625 432.019531 463.382812 433.554688 461.96875 434.910156 C 440.140625 455.90625 414.625 463.820312 385.101562 455.507812 C 374.164062 452.433594 364.429688 453.460938 354.410156 458.675781 C 354.144531 458.820312 353.867188 458.953125 353.59375 459.09375 C 350.433594 461.003906 347.21875 462.851562 343.90625 464.578125 C 338.867188 467.214844 333.601562 469.578125 328.054688 471.429688 C 322.511719 473.289062 316.648438 474.589844 310.578125 475.082031 L 310.546875 464.019531 C 315.578125 464.445312 320.8125 464.199219 326.050781 463.363281 Z M 326.050781 463.363281 " fill-opacity="1" fill-rule="nonzero"/></g><g fill="#ffffff" fill-opacity="1"><g transform="translate(146.844939, 184.040023)"><g><path d="M 14.34375 -26 C 16.644531 -26 18.640625 -25.613281 20.328125 -24.84375 C 22.023438 -24.082031 23.332031 -22.992188 24.25 -21.578125 C 25.164062 -20.171875 25.625 -18.5 25.625 -16.5625 C 25.625 -14.65625 25.164062 -12.988281 24.25 -11.5625 C 23.332031 -10.144531 22.023438 -9.054688 20.328125 -8.296875 C 18.640625 -7.546875 16.644531 -7.171875 14.34375 -7.171875 L 9.09375 -7.171875 L 9.09375 0 L 3.078125 0 L 3.078125 -26 Z M 14 -12.078125 C 15.8125 -12.078125 17.1875 -12.460938 18.125 -13.234375 C 19.0625 -14.015625 19.53125 -15.125 19.53125 -16.5625 C 19.53125 -18.019531 19.0625 -19.140625 18.125 -19.921875 C 17.1875 -20.703125 15.8125 -21.09375 14 -21.09375 L 9.09375 -21.09375 L 9.09375 -12.078125 Z M 14 -12.078125 "/></g></g></g><g fill="#ffffff" fill-opacity="1"><g transform="translate(176.001075, 184.040023)"><g><path d="M 8.203125 -17.34375 C 8.898438 -18.3125 9.835938 -19.039062 11.015625 -19.53125 C 12.191406 -20.03125 13.546875 -20.28125 15.078125 -20.28125 L 15.078125 -14.9375 C 14.429688 -14.976562 14 -15 13.78125 -15 C 12.125 -15 10.820312 -14.535156 9.875 -13.609375 C 8.9375 -12.679688 8.46875 -11.289062 8.46875 -9.4375 L 8.46875 0 L 2.671875 0 L 2.671875 -19.984375 L 8.203125 -19.984375 Z M 8.203125 -17.34375 "/></g></g></g><g fill="#ffffff" fill-opacity="1"><g transform="translate(193.977725, 184.040023)"><g><path d="M 2.671875 -19.984375 L 8.46875 -19.984375 L 8.46875 0 L 2.671875 0 Z M 5.578125 -22.765625 C 4.515625 -22.765625 3.644531 -23.070312 2.96875 -23.6875 C 2.300781 -24.3125 1.96875 -25.082031 1.96875 -26 C 1.96875 -26.914062 2.300781 -27.679688 2.96875 -28.296875 C 3.644531 -28.921875 4.515625 -29.234375 5.578125 -29.234375 C 6.640625 -29.234375 7.503906 -28.9375 8.171875 -28.34375 C 8.835938 -27.75 9.171875 -27.003906 9.171875 -26.109375 C 9.171875 -25.140625 8.835938 -24.335938 8.171875 -23.703125 C 7.503906 -23.078125 6.640625 -22.765625 5.578125 -22.765625 Z M 5.578125 -22.765625 "/></g></g></g><g fill="#ffffff" fill-opacity="1"><g transform="translate(207.126027, 184.040023)"><g><path d="M 15.375 0 L 11 -6.125 L 6.46875 0 L 0.15625 0 L 7.84375 -10.0625 L 0.40625 -19.984375 L 6.90625 -19.984375 L 11.140625 -14.15625 L 15.484375 -19.984375 L 21.65625 -19.984375 L 14.21875 -10.21875 L 21.953125 0 Z M 15.375 0 "/></g></g></g><g fill="#ffffff" fill-opacity="1"><g transform="translate(231.193826, 184.040023)"><g/></g></g><g fill="#ffffff" fill-opacity="1"><g transform="translate(243.673587, 184.040023)"><g><path d="M 23.03125 -27.5625 L 23.03125 0 L 17.5 0 L 17.5 -2.296875 C 16.0625 -0.566406 13.976562 0.296875 11.25 0.296875 C 9.375 0.296875 7.671875 -0.125 6.140625 -0.96875 C 4.617188 -1.8125 3.425781 -3.007812 2.5625 -4.5625 C 1.695312 -6.125 1.265625 -7.929688 1.265625 -9.984375 C 1.265625 -12.046875 1.695312 -13.851562 2.5625 -15.40625 C 3.425781 -16.96875 4.617188 -18.171875 6.140625 -19.015625 C 7.671875 -19.859375 9.375 -20.28125 11.25 -20.28125 C 13.800781 -20.28125 15.796875 -19.472656 17.234375 -17.859375 L 17.234375 -27.5625 Z M 12.25 -4.453125 C 13.71875 -4.453125 14.929688 -4.953125 15.890625 -5.953125 C 16.859375 -6.960938 17.34375 -8.304688 17.34375 -9.984375 C 17.34375 -11.671875 16.859375 -13.015625 15.890625 -14.015625 C 14.929688 -15.023438 13.71875 -15.53125 12.25 -15.53125 C 10.769531 -15.53125 9.546875 -15.023438 8.578125 -14.015625 C 7.609375 -13.015625 7.125 -11.671875 7.125 -9.984375 C 7.125 -8.304688 7.609375 -6.960938 8.578125 -5.953125 C 9.546875 -4.953125 10.769531 -4.453125 12.25 -4.453125 Z M 12.25 -4.453125 "/></g></g></g><g fill="#ffffff" fill-opacity="1"><g transform="translate(271.344081, 184.040023)"><g><path d="M 22.796875 -19.984375 L 22.796875 0 L 17.3125 0 L 17.3125 -2.375 C 16.539062 -1.507812 15.625 -0.847656 14.5625 -0.390625 C 13.5 0.0664062 12.347656 0.296875 11.109375 0.296875 C 8.484375 0.296875 6.398438 -0.457031 4.859375 -1.96875 C 3.328125 -3.476562 2.5625 -5.71875 2.5625 -8.6875 L 2.5625 -19.984375 L 8.359375 -19.984375 L 8.359375 -9.546875 C 8.359375 -6.328125 9.707031 -4.71875 12.40625 -4.71875 C 13.789062 -4.71875 14.90625 -5.164062 15.75 -6.0625 C 16.59375 -6.96875 17.015625 -8.316406 17.015625 -10.109375 L 17.015625 -19.984375 Z M 22.796875 -19.984375 "/></g></g></g><g fill="#ffffff" fill-opacity="1"><g transform="translate(298.828865, 184.040023)"><g/></g></g><g fill="#ffffff" fill-opacity="1"><g transform="translate(311.308626, 184.040023)"><g><path d="M 7.875 0.453125 C 6.113281 0.453125 4.492188 0.125 3.015625 -0.53125 C 1.546875 -1.1875 0.34375 -2.125 -0.59375 -3.34375 L 2.75 -7.359375 C 4.15625 -5.453125 5.765625 -4.5 7.578125 -4.5 C 10.023438 -4.5 11.25 -5.929688 11.25 -8.796875 L 11.25 -21.171875 L 2.109375 -21.171875 L 2.109375 -26 L 17.234375 -26 L 17.234375 -9.140625 C 17.234375 -5.941406 16.441406 -3.539062 14.859375 -1.9375 C 13.273438 -0.34375 10.945312 0.453125 7.875 0.453125 Z M 7.875 0.453125 "/></g></g></g><g fill="#ffffff" fill-opacity="1"><g transform="translate(333.3708, 184.040023)"><g><path d="M 22.796875 -19.984375 L 22.796875 0 L 17.3125 0 L 17.3125 -2.375 C 16.539062 -1.507812 15.625 -0.847656 14.5625 -0.390625 C 13.5 0.0664062 12.347656 0.296875 11.109375 0.296875 C 8.484375 0.296875 6.398438 -0.457031 4.859375 -1.96875 C 3.328125 -3.476562 2.5625 -5.71875 2.5625 -8.6875 L 2.5625 -19.984375 L 8.359375 -19.984375 L 8.359375 -9.546875 C 8.359375 -6.328125 9.707031 -4.71875 12.40625 -4.71875 C 13.789062 -4.71875 14.90625 -5.164062 15.75 -6.0625 C 16.59375 -6.96875 17.015625 -8.316406 17.015625 -10.109375 L 17.015625 -19.984375 Z M 22.796875 -19.984375 "/></g></g></g><g fill="#ffffff" fill-opacity="1"><g transform="translate(360.855584, 184.040023)"><g><path d="M 8.203125 -17.34375 C 8.898438 -18.3125 9.835938 -19.039062 11.015625 -19.53125 C 12.191406 -20.03125 13.546875 -20.28125 15.078125 -20.28125 L 15.078125 -14.9375 C 14.429688 -14.976562 14 -15 13.78125 -15 C 12.125 -15 10.820312 -14.535156 9.875 -13.609375 C 8.9375 -12.679688 8.46875 -11.289062 8.46875 -9.4375 L 8.46875 0 L 2.671875 0 L 2.671875 -19.984375 L 8.203125 -19.984375 Z M 8.203125 -17.34375 "/></g></g></g><g fill="#ffffff" fill-opacity="1"><g transform="translate(378.832233, 184.040023)"><g><path d="M 22.5 -19.984375 L 13.484375 1.21875 C 12.566406 3.53125 11.429688 5.15625 10.078125 6.09375 C 8.734375 7.03125 7.109375 7.5 5.203125 7.5 C 4.160156 7.5 3.128906 7.335938 2.109375 7.015625 C 1.097656 6.691406 0.269531 6.25 -0.375 5.6875 L 1.75 1.5625 C 2.195312 1.957031 2.707031 2.265625 3.28125 2.484375 C 3.863281 2.710938 4.441406 2.828125 5.015625 2.828125 C 5.804688 2.828125 6.445312 2.632812 6.9375 2.25 C 7.4375 1.863281 7.882812 1.222656 8.28125 0.328125 L 8.359375 0.15625 L -0.296875 -19.984375 L 5.6875 -19.984375 L 11.296875 -6.421875 L 16.9375 -19.984375 Z M 22.5 -19.984375 "/></g></g></g><g fill="#ffffff" fill-opacity="1"><g transform="translate(112.550046, 229.766548)"><g><path d="M 22.421875 0 L 22.390625 -13.078125 L 15.96875 -2.296875 L 13.703125 -2.296875 L 7.3125 -12.796875 L 7.3125 0 L 2.578125 0 L 2.578125 -21.796875 L 6.75 -21.796875 L 14.921875 -8.25 L 22.953125 -21.796875 L 27.09375 -21.796875 L 27.15625 0 Z M 22.421875 0 "/></g></g></g><g fill="#ffffff" fill-opacity="1"><g transform="translate(143.943669, 229.766548)"><g><path d="M 19.125 -16.75 L 19.125 0 L 14.515625 0 L 14.515625 -2 C 13.867188 -1.269531 13.097656 -0.710938 12.203125 -0.328125 C 11.316406 0.0546875 10.351562 0.25 9.3125 0.25 C 7.113281 0.25 5.367188 -0.378906 4.078125 -1.640625 C 2.796875 -2.910156 2.15625 -4.789062 2.15625 -7.28125 L 2.15625 -16.75 L 7 -16.75 L 7 -8 C 7 -5.300781 8.132812 -3.953125 10.40625 -3.953125 C 11.5625 -3.953125 12.492188 -4.332031 13.203125 -5.09375 C 13.910156 -5.851562 14.265625 -6.976562 14.265625 -8.46875 L 14.265625 -16.75 Z M 19.125 -16.75 "/></g></g></g><g fill="#ffffff" fill-opacity="1"><g transform="translate(166.990664, 229.766548)"><g><path d="M 7.875 0.25 C 6.488281 0.25 5.128906 0.078125 3.796875 -0.265625 C 2.472656 -0.609375 1.414062 -1.039062 0.625 -1.5625 L 2.234375 -5.046875 C 2.984375 -4.566406 3.890625 -4.175781 4.953125 -3.875 C 6.015625 -3.570312 7.050781 -3.421875 8.0625 -3.421875 C 10.113281 -3.421875 11.140625 -3.929688 11.140625 -4.953125 C 11.140625 -5.429688 10.859375 -5.773438 10.296875 -5.984375 C 9.742188 -6.191406 8.882812 -6.367188 7.71875 -6.515625 C 6.351562 -6.710938 5.222656 -6.945312 4.328125 -7.21875 C 3.429688 -7.488281 2.65625 -7.96875 2 -8.65625 C 1.351562 -9.34375 1.03125 -10.316406 1.03125 -11.578125 C 1.03125 -12.640625 1.332031 -13.578125 1.9375 -14.390625 C 2.550781 -15.210938 3.445312 -15.851562 4.625 -16.3125 C 5.800781 -16.769531 7.1875 -17 8.78125 -17 C 9.96875 -17 11.144531 -16.867188 12.3125 -16.609375 C 13.488281 -16.347656 14.460938 -15.992188 15.234375 -15.546875 L 13.609375 -12.078125 C 12.128906 -12.910156 10.519531 -13.328125 8.78125 -13.328125 C 7.738281 -13.328125 6.957031 -13.179688 6.4375 -12.890625 C 5.925781 -12.597656 5.671875 -12.222656 5.671875 -11.765625 C 5.671875 -11.253906 5.945312 -10.894531 6.5 -10.6875 C 7.0625 -10.476562 7.957031 -10.28125 9.1875 -10.09375 C 10.550781 -9.863281 11.671875 -9.617188 12.546875 -9.359375 C 13.421875 -9.097656 14.175781 -8.625 14.8125 -7.9375 C 15.457031 -7.25 15.78125 -6.296875 15.78125 -5.078125 C 15.78125 -4.035156 15.46875 -3.109375 14.84375 -2.296875 C 14.226562 -1.492188 13.320312 -0.867188 12.125 -0.421875 C 10.9375 0.0234375 9.519531 0.25 7.875 0.25 Z M 7.875 0.25 "/></g></g></g><g fill="#ffffff" fill-opacity="1"><g transform="translate(185.179171, 229.766548)"><g><path d="M 2.234375 -16.75 L 7.09375 -16.75 L 7.09375 0 L 2.234375 0 Z M 4.671875 -19.09375 C 3.773438 -19.09375 3.046875 -19.347656 2.484375 -19.859375 C 1.929688 -20.378906 1.65625 -21.023438 1.65625 -21.796875 C 1.65625 -22.566406 1.929688 -23.207031 2.484375 -23.71875 C 3.046875 -24.238281 3.773438 -24.5 4.671875 -24.5 C 5.566406 -24.5 6.289062 -24.25 6.84375 -23.75 C 7.40625 -23.257812 7.6875 -22.640625 7.6875 -21.890625 C 7.6875 -21.078125 7.40625 -20.40625 6.84375 -19.875 C 6.289062 -19.351562 5.566406 -19.09375 4.671875 -19.09375 Z M 4.671875 -19.09375 "/></g></g></g><g fill="#ffffff" fill-opacity="1"><g transform="translate(196.20454, 229.766548)"><g><path d="M 19.25 -16.75 L 19.25 6.046875 L 14.390625 6.046875 L 14.390625 -1.78125 C 13.179688 -0.425781 11.507812 0.25 9.375 0.25 C 7.789062 0.25 6.359375 -0.101562 5.078125 -0.8125 C 3.804688 -1.519531 2.804688 -2.523438 2.078125 -3.828125 C 1.359375 -5.140625 1 -6.65625 1 -8.375 C 1 -10.101562 1.359375 -11.617188 2.078125 -12.921875 C 2.804688 -14.234375 3.804688 -15.238281 5.078125 -15.9375 C 6.359375 -16.644531 7.789062 -17 9.375 -17 C 11.65625 -17 13.398438 -16.273438 14.609375 -14.828125 L 14.609375 -16.75 Z M 10.21875 -3.734375 C 11.4375 -3.734375 12.453125 -4.15625 13.265625 -5 C 14.078125 -5.84375 14.484375 -6.96875 14.484375 -8.375 C 14.484375 -9.789062 14.078125 -10.914062 13.265625 -11.75 C 12.453125 -12.59375 11.4375 -13.015625 10.21875 -13.015625 C 8.96875 -13.015625 7.9375 -12.59375 7.125 -11.75 C 6.320312 -10.914062 5.921875 -9.789062 5.921875 -8.375 C 5.921875 -6.96875 6.320312 -5.84375 7.125 -5 C 7.9375 -4.15625 8.96875 -3.734375 10.21875 -3.734375 Z M 10.21875 -3.734375 "/></g></g></g><g fill="#ffffff" fill-opacity="1"><g transform="translate(219.344973, 229.766548)"><g><path d="M 19.125 -16.75 L 19.125 0 L 14.515625 0 L 14.515625 -2 C 13.867188 -1.269531 13.097656 -0.710938 12.203125 -0.328125 C 11.316406 0.0546875 10.351562 0.25 9.3125 0.25 C 7.113281 0.25 5.367188 -0.378906 4.078125 -1.640625 C 2.796875 -2.910156 2.15625 -4.789062 2.15625 -7.28125 L 2.15625 -16.75 L 7 -16.75 L 7 -8 C 7 -5.300781 8.132812 -3.953125 10.40625 -3.953125 C 11.5625 -3.953125 12.492188 -4.332031 13.203125 -5.09375 C 13.910156 -5.851562 14.265625 -6.976562 14.265625 -8.46875 L 14.265625 -16.75 Z M 19.125 -16.75 "/></g></g></g><g fill="#ffffff" fill-opacity="1"><g transform="translate(242.391968, 229.766548)"><g><path d="M 18.65625 -8.3125 C 18.65625 -8.25 18.625 -7.8125 18.5625 -7 L 5.890625 -7 C 6.117188 -5.96875 6.65625 -5.148438 7.5 -4.546875 C 8.351562 -3.941406 9.414062 -3.640625 10.6875 -3.640625 C 11.550781 -3.640625 12.320312 -3.769531 13 -4.03125 C 13.675781 -4.289062 14.304688 -4.703125 14.890625 -5.265625 L 17.46875 -2.453125 C 15.894531 -0.648438 13.59375 0.25 10.5625 0.25 C 8.664062 0.25 6.988281 -0.117188 5.53125 -0.859375 C 4.082031 -1.597656 2.960938 -2.617188 2.171875 -3.921875 C 1.390625 -5.234375 1 -6.71875 1 -8.375 C 1 -10.019531 1.382812 -11.5 2.15625 -12.8125 C 2.9375 -14.132812 4.003906 -15.160156 5.359375 -15.890625 C 6.722656 -16.628906 8.25 -17 9.9375 -17 C 11.570312 -17 13.050781 -16.644531 14.375 -15.9375 C 15.707031 -15.238281 16.753906 -14.226562 17.515625 -12.90625 C 18.273438 -11.59375 18.65625 -10.0625 18.65625 -8.3125 Z M 9.96875 -13.328125 C 8.863281 -13.328125 7.9375 -13.015625 7.1875 -12.390625 C 6.445312 -11.765625 5.992188 -10.914062 5.828125 -9.84375 L 14.078125 -9.84375 C 13.910156 -10.894531 13.453125 -11.738281 12.703125 -12.375 C 11.953125 -13.007812 11.039062 -13.328125 9.96875 -13.328125 Z M 9.96875 -13.328125 "/></g></g></g><g fill="#ffffff" fill-opacity="1"><g transform="translate(263.694897, 229.766548)"><g/></g></g><g fill="#ffffff" fill-opacity="1"><g transform="translate(274.159667, 229.766548)"><g><path d="M 9 -17 C 11.59375 -17 13.582031 -16.378906 14.96875 -15.140625 C 16.363281 -13.910156 17.0625 -12.050781 17.0625 -9.5625 L 17.0625 0 L 12.515625 0 L 12.515625 -2.09375 C 11.597656 -0.53125 9.894531 0.25 7.40625 0.25 C 6.125 0.25 5.007812 0.03125 4.0625 -0.40625 C 3.113281 -0.84375 2.390625 -1.441406 1.890625 -2.203125 C 1.398438 -2.972656 1.15625 -3.847656 1.15625 -4.828125 C 1.15625 -6.378906 1.738281 -7.601562 2.90625 -8.5 C 4.082031 -9.394531 5.894531 -9.84375 8.34375 -9.84375 L 12.203125 -9.84375 C 12.203125 -10.894531 11.878906 -11.707031 11.234375 -12.28125 C 10.597656 -12.851562 9.632812 -13.140625 8.34375 -13.140625 C 7.445312 -13.140625 6.566406 -13 5.703125 -12.71875 C 4.847656 -12.4375 4.117188 -12.054688 3.515625 -11.578125 L 1.78125 -14.984375 C 2.6875 -15.617188 3.773438 -16.113281 5.046875 -16.46875 C 6.328125 -16.820312 7.644531 -17 9 -17 Z M 8.625 -3.015625 C 9.457031 -3.015625 10.191406 -3.207031 10.828125 -3.59375 C 11.472656 -3.976562 11.929688 -4.546875 12.203125 -5.296875 L 12.203125 -7 L 8.875 -7 C 6.882812 -7 5.890625 -6.347656 5.890625 -5.046875 C 5.890625 -4.421875 6.128906 -3.925781 6.609375 -3.5625 C 7.097656 -3.195312 7.769531 -3.015625 8.625 -3.015625 Z M 2.90625 -23.390625 L 8.125 -23.390625 L 12.328125 -18.90625 L 8.53125 -18.90625 Z M 2.90625 -23.390625 "/></g></g></g><g fill="#ffffff" fill-opacity="1"><g transform="translate(295.026571, 229.766548)"><g/></g></g><g fill="#ffffff" fill-opacity="1"><g transform="translate(305.491353, 229.766548)"><g><path d="M 2.234375 -23.109375 L 7.09375 -23.109375 L 7.09375 0 L 2.234375 0 Z M 2.234375 -23.109375 "/></g></g></g><g fill="#ffffff" fill-opacity="1"><g transform="translate(316.516698, 229.766548)"><g><path d="M 4.109375 -23.359375 C 4.984375 -23.359375 5.695312 -23.082031 6.25 -22.53125 C 6.8125 -21.976562 7.09375 -21.253906 7.09375 -20.359375 C 7.09375 -19.953125 7.039062 -19.539062 6.9375 -19.125 C 6.832031 -18.707031 6.617188 -18.082031 6.296875 -17.25 L 4.484375 -12.765625 L 1.40625 -12.765625 L 2.734375 -17.6875 C 2.222656 -17.914062 1.820312 -18.257812 1.53125 -18.71875 C 1.238281 -19.175781 1.09375 -19.722656 1.09375 -20.359375 C 1.09375 -21.253906 1.375 -21.976562 1.9375 -22.53125 C 2.507812 -23.082031 3.234375 -23.359375 4.109375 -23.359375 Z M 4.109375 -23.359375 "/></g></g></g><g fill="#ffffff" fill-opacity="1"><g transform="translate(326.327442, 229.766548)"><g><path d="M 2.234375 -16.75 L 7.09375 -16.75 L 7.09375 0 L 2.234375 0 Z M 4.671875 -19.09375 C 3.773438 -19.09375 3.046875 -19.347656 2.484375 -19.859375 C 1.929688 -20.378906 1.65625 -21.023438 1.65625 -21.796875 C 1.65625 -22.566406 1.929688 -23.207031 2.484375 -23.71875 C 3.046875 -24.238281 3.773438 -24.5 4.671875 -24.5 C 5.566406 -24.5 6.289062 -24.25 6.84375 -23.75 C 7.40625 -23.257812 7.6875 -22.640625 7.6875 -21.890625 C 7.6875 -21.078125 7.40625 -20.40625 6.84375 -19.875 C 6.289062 -19.351562 5.566406 -19.09375 4.671875 -19.09375 Z M 4.671875 -19.09375 "/></g></g></g><g fill="#ffffff" fill-opacity="1"><g transform="translate(337.352834, 229.766548)"><g><path d="M 23.703125 -17 C 25.796875 -17 27.457031 -16.378906 28.6875 -15.140625 C 29.925781 -13.910156 30.546875 -12.0625 30.546875 -9.59375 L 30.546875 0 L 25.6875 0 L 25.6875 -8.84375 C 25.6875 -10.175781 25.410156 -11.164062 24.859375 -11.8125 C 24.316406 -12.46875 23.535156 -12.796875 22.515625 -12.796875 C 21.367188 -12.796875 20.460938 -12.425781 19.796875 -11.6875 C 19.140625 -10.957031 18.8125 -9.863281 18.8125 -8.40625 L 18.8125 0 L 13.953125 0 L 13.953125 -8.84375 C 13.953125 -11.476562 12.894531 -12.796875 10.78125 -12.796875 C 9.65625 -12.796875 8.757812 -12.425781 8.09375 -11.6875 C 7.425781 -10.957031 7.09375 -9.863281 7.09375 -8.40625 L 7.09375 0 L 2.234375 0 L 2.234375 -16.75 L 6.875 -16.75 L 6.875 -14.828125 C 7.5 -15.523438 8.265625 -16.0625 9.171875 -16.4375 C 10.078125 -16.8125 11.066406 -17 12.140625 -17 C 13.328125 -17 14.394531 -16.765625 15.34375 -16.296875 C 16.300781 -15.828125 17.070312 -15.148438 17.65625 -14.265625 C 18.34375 -15.128906 19.207031 -15.800781 20.25 -16.28125 C 21.300781 -16.757812 22.453125 -17 23.703125 -17 Z M 23.703125 -17 "/></g></g></g><g fill="#ffffff" fill-opacity="1"><g transform="translate(371.673989, 229.766548)"><g><path d="M 9 -17 C 11.59375 -17 13.582031 -16.378906 14.96875 -15.140625 C 16.363281 -13.910156 17.0625 -12.050781 17.0625 -9.5625 L 17.0625 0 L 12.515625 0 L 12.515625 -2.09375 C 11.597656 -0.53125 9.894531 0.25 7.40625 0.25 C 6.125 0.25 5.007812 0.03125 4.0625 -0.40625 C 3.113281 -0.84375 2.390625 -1.441406 1.890625 -2.203125 C 1.398438 -2.972656 1.15625 -3.847656 1.15625 -4.828125 C 1.15625 -6.378906 1.738281 -7.601562 2.90625 -8.5 C 4.082031 -9.394531 5.894531 -9.84375 8.34375 -9.84375 L 12.203125 -9.84375 C 12.203125 -10.894531 11.878906 -11.707031 11.234375 -12.28125 C 10.597656 -12.851562 9.632812 -13.140625 8.34375 -13.140625 C 7.445312 -13.140625 6.566406 -13 5.703125 -12.71875 C 4.847656 -12.4375 4.117188 -12.054688 3.515625 -11.578125 L 1.78125 -14.984375 C 2.6875 -15.617188 3.773438 -16.113281 5.046875 -16.46875 C 6.328125 -16.820312 7.644531 -17 9 -17 Z M 8.625 -3.015625 C 9.457031 -3.015625 10.191406 -3.207031 10.828125 -3.59375 C 11.472656 -3.976562 11.929688 -4.546875 12.203125 -5.296875 L 12.203125 -7 L 8.875 -7 C 6.882812 -7 5.890625 -6.347656 5.890625 -5.046875 C 5.890625 -4.421875 6.128906 -3.925781 6.609375 -3.5625 C 7.097656 -3.195312 7.769531 -3.015625 8.625 -3.015625 Z M 8.625 -3.015625 "/></g></g></g><g fill="#ffffff" fill-opacity="1"><g transform="translate(392.540894, 229.766548)"><g><path d="M 19.53125 -16.75 L 19.53125 -2.796875 C 19.53125 0.273438 18.726562 2.554688 17.125 4.046875 C 15.53125 5.546875 13.195312 6.296875 10.125 6.296875 C 8.5 6.296875 6.957031 6.097656 5.5 5.703125 C 4.050781 5.304688 2.851562 4.734375 1.90625 3.984375 L 3.828125 0.5 C 4.535156 1.082031 5.425781 1.539062 6.5 1.875 C 7.582031 2.21875 8.664062 2.390625 9.75 2.390625 C 11.425781 2.390625 12.664062 2.007812 13.46875 1.25 C 14.269531 0.5 14.671875 -0.644531 14.671875 -2.1875 L 14.671875 -2.890625 C 13.398438 -1.503906 11.632812 -0.8125 9.375 -0.8125 C 7.832031 -0.8125 6.421875 -1.144531 5.140625 -1.8125 C 3.867188 -2.488281 2.859375 -3.441406 2.109375 -4.671875 C 1.367188 -5.898438 1 -7.3125 1 -8.90625 C 1 -10.5 1.367188 -11.910156 2.109375 -13.140625 C 2.859375 -14.367188 3.867188 -15.316406 5.140625 -15.984375 C 6.421875 -16.660156 7.832031 -17 9.375 -17 C 11.800781 -17 13.648438 -16.203125 14.921875 -14.609375 L 14.921875 -16.75 Z M 10.34375 -4.796875 C 11.625 -4.796875 12.675781 -5.171875 13.5 -5.921875 C 14.320312 -6.679688 14.734375 -7.675781 14.734375 -8.90625 C 14.734375 -10.132812 14.320312 -11.125 13.5 -11.875 C 12.675781 -12.632812 11.625 -13.015625 10.34375 -13.015625 C 9.050781 -13.015625 7.988281 -12.632812 7.15625 -11.875 C 6.332031 -11.125 5.921875 -10.132812 5.921875 -8.90625 C 5.921875 -7.675781 6.332031 -6.679688 7.15625 -5.921875 C 7.988281 -5.171875 9.050781 -4.796875 10.34375 -4.796875 Z M 10.34375 -4.796875 "/></g></g></g><g fill="#ffffff" fill-opacity="1"><g transform="translate(415.992767, 229.766548)"><g><path d="M 18.65625 -8.3125 C 18.65625 -8.25 18.625 -7.8125 18.5625 -7 L 5.890625 -7 C 6.117188 -5.96875 6.65625 -5.148438 7.5 -4.546875 C 8.351562 -3.941406 9.414062 -3.640625 10.6875 -3.640625 C 11.550781 -3.640625 12.320312 -3.769531 13 -4.03125 C 13.675781 -4.289062 14.304688 -4.703125 14.890625 -5.265625 L 17.46875 -2.453125 C 15.894531 -0.648438 13.59375 0.25 10.5625 0.25 C 8.664062 0.25 6.988281 -0.117188 5.53125 -0.859375 C 4.082031 -1.597656 2.960938 -2.617188 2.171875 -3.921875 C 1.390625 -5.234375 1 -6.71875 1 -8.375 C 1 -10.019531 1.382812 -11.5 2.15625 -12.8125 C 2.9375 -14.132812 4.003906 -15.160156 5.359375 -15.890625 C 6.722656 -16.628906 8.25 -17 9.9375 -17 C 11.570312 -17 13.050781 -16.644531 14.375 -15.9375 C 15.707031 -15.238281 16.753906 -14.226562 17.515625 -12.90625 C 18.273438 -11.59375 18.65625 -10.0625 18.65625 -8.3125 Z M 9.96875 -13.328125 C 8.863281 -13.328125 7.9375 -13.015625 7.1875 -12.390625 C 6.445312 -11.765625 5.992188 -10.914062 5.828125 -9.84375 L 14.078125 -9.84375 C 13.910156 -10.894531 13.453125 -11.738281 12.703125 -12.375 C 11.953125 -13.007812 11.039062 -13.328125 9.96875 -13.328125 Z M 9.96875 -13.328125 "/></g></g></g><g fill="#ffffff" fill-opacity="1"><g transform="translate(148.028077, 303.181592)"><g><path d="M 12.390625 0.171875 C 10.328125 0.171875 8.472656 -0.28125 6.828125 -1.1875 C 5.179688 -2.09375 3.890625 -3.347656 2.953125 -4.953125 C 2.015625 -6.566406 1.546875 -8.375 1.546875 -10.375 C 1.546875 -12.363281 2.015625 -14.160156 2.953125 -15.765625 C 3.890625 -17.378906 5.1875 -18.640625 6.84375 -19.546875 C 8.5 -20.460938 10.351562 -20.921875 12.40625 -20.921875 C 13.945312 -20.921875 15.367188 -20.660156 16.671875 -20.140625 C 17.984375 -19.628906 19.09375 -18.878906 20 -17.890625 L 18.609375 -16.5 C 16.984375 -18.132812 14.9375 -18.953125 12.46875 -18.953125 C 10.832031 -18.953125 9.34375 -18.578125 8 -17.828125 C 6.65625 -17.078125 5.601562 -16.050781 4.84375 -14.75 C 4.082031 -13.445312 3.703125 -11.988281 3.703125 -10.375 C 3.703125 -8.75 4.082031 -7.285156 4.84375 -5.984375 C 5.601562 -4.679688 6.65625 -3.65625 8 -2.90625 C 9.34375 -2.15625 10.832031 -1.78125 12.46875 -1.78125 C 14.957031 -1.78125 17.003906 -2.609375 18.609375 -4.265625 L 20 -2.875 C 19.09375 -1.882812 17.976562 -1.128906 16.65625 -0.609375 C 15.34375 -0.0859375 13.921875 0.171875 12.390625 0.171875 Z M 12.390625 0.171875 "/></g></g></g><g fill="#ffffff" fill-opacity="1"><g transform="translate(170.896899, 303.181592)"><g><path d="M 9.296875 0.140625 C 7.796875 0.140625 6.441406 -0.195312 5.234375 -0.875 C 4.035156 -1.550781 3.085938 -2.492188 2.390625 -3.703125 C 1.703125 -4.910156 1.359375 -6.273438 1.359375 -7.796875 C 1.359375 -9.316406 1.703125 -10.675781 2.390625 -11.875 C 3.085938 -13.082031 4.035156 -14.019531 5.234375 -14.6875 C 6.441406 -15.363281 7.796875 -15.703125 9.296875 -15.703125 C 10.796875 -15.703125 12.148438 -15.363281 13.359375 -14.6875 C 14.566406 -14.019531 15.507812 -13.082031 16.1875 -11.875 C 16.875 -10.675781 17.21875 -9.316406 17.21875 -7.796875 C 17.21875 -6.273438 16.875 -4.910156 16.1875 -3.703125 C 15.507812 -2.492188 14.566406 -1.550781 13.359375 -0.875 C 12.148438 -0.195312 10.796875 0.140625 9.296875 0.140625 Z M 9.296875 -1.71875 C 10.410156 -1.71875 11.40625 -1.96875 12.28125 -2.46875 C 13.15625 -2.976562 13.835938 -3.695312 14.328125 -4.625 C 14.828125 -5.550781 15.078125 -6.609375 15.078125 -7.796875 C 15.078125 -8.972656 14.828125 -10.023438 14.328125 -10.953125 C 13.835938 -11.890625 13.15625 -12.609375 12.28125 -13.109375 C 11.40625 -13.609375 10.410156 -13.859375 9.296875 -13.859375 C 8.191406 -13.859375 7.195312 -13.609375 6.3125 -13.109375 C 5.4375 -12.609375 4.75 -11.890625 4.25 -10.953125 C 3.75 -10.023438 3.5 -8.972656 3.5 -7.796875 C 3.5 -6.609375 3.75 -5.550781 4.25 -4.625 C 4.75 -3.695312 5.4375 -2.976562 6.3125 -2.46875 C 7.195312 -1.96875 8.191406 -1.71875 9.296875 -1.71875 Z M 9.296875 -1.71875 "/></g></g></g><g fill="#ffffff" fill-opacity="1"><g transform="translate(191.04053, 303.181592)"><g><path d="M 22.359375 -15.703125 C 24.316406 -15.703125 25.851562 -15.140625 26.96875 -14.015625 C 28.082031 -12.890625 28.640625 -11.226562 28.640625 -9.03125 L 28.640625 0 L 26.546875 0 L 26.546875 -8.828125 C 26.546875 -10.441406 26.15625 -11.675781 25.375 -12.53125 C 24.59375 -13.382812 23.492188 -13.8125 22.078125 -13.8125 C 20.453125 -13.8125 19.175781 -13.3125 18.25 -12.3125 C 17.320312 -11.3125 16.859375 -9.929688 16.859375 -8.171875 L 16.859375 0 L 14.75 0 L 14.75 -8.828125 C 14.75 -10.441406 14.359375 -11.675781 13.578125 -12.53125 C 12.796875 -13.382812 11.6875 -13.8125 10.25 -13.8125 C 8.644531 -13.8125 7.375 -13.3125 6.4375 -12.3125 C 5.5 -11.3125 5.03125 -9.929688 5.03125 -8.171875 L 5.03125 0 L 2.9375 0 L 2.9375 -15.578125 L 4.953125 -15.578125 L 4.953125 -12.734375 C 5.503906 -13.679688 6.269531 -14.410156 7.25 -14.921875 C 8.238281 -15.441406 9.378906 -15.703125 10.671875 -15.703125 C 11.972656 -15.703125 13.101562 -15.425781 14.0625 -14.875 C 15.019531 -14.320312 15.734375 -13.5 16.203125 -12.40625 C 16.773438 -13.4375 17.597656 -14.242188 18.671875 -14.828125 C 19.753906 -15.410156 20.984375 -15.703125 22.359375 -15.703125 Z M 22.359375 -15.703125 "/></g></g></g><g fill="#ffffff" fill-opacity="1"><g transform="translate(224.039932, 303.181592)"><g><path d="M 10.96875 -15.703125 C 12.425781 -15.703125 13.742188 -15.367188 14.921875 -14.703125 C 16.109375 -14.046875 17.035156 -13.113281 17.703125 -11.90625 C 18.378906 -10.707031 18.71875 -9.335938 18.71875 -7.796875 C 18.71875 -6.234375 18.378906 -4.847656 17.703125 -3.640625 C 17.035156 -2.441406 16.113281 -1.507812 14.9375 -0.84375 C 13.769531 -0.1875 12.445312 0.140625 10.96875 0.140625 C 9.695312 0.140625 8.550781 -0.117188 7.53125 -0.640625 C 6.519531 -1.160156 5.6875 -1.925781 5.03125 -2.9375 L 5.03125 5.75 L 2.9375 5.75 L 2.9375 -15.578125 L 4.953125 -15.578125 L 4.953125 -12.5 C 5.578125 -13.53125 6.40625 -14.320312 7.4375 -14.875 C 8.476562 -15.425781 9.65625 -15.703125 10.96875 -15.703125 Z M 10.8125 -1.71875 C 11.894531 -1.71875 12.878906 -1.96875 13.765625 -2.46875 C 14.660156 -2.976562 15.359375 -3.695312 15.859375 -4.625 C 16.367188 -5.550781 16.625 -6.609375 16.625 -7.796875 C 16.625 -8.972656 16.367188 -10.019531 15.859375 -10.9375 C 15.359375 -11.863281 14.660156 -12.582031 13.765625 -13.09375 C 12.878906 -13.601562 11.894531 -13.859375 10.8125 -13.859375 C 9.707031 -13.859375 8.710938 -13.601562 7.828125 -13.09375 C 6.953125 -12.582031 6.257812 -11.863281 5.75 -10.9375 C 5.25 -10.019531 5 -8.972656 5 -7.796875 C 5 -6.609375 5.25 -5.550781 5.75 -4.625 C 6.257812 -3.695312 6.953125 -2.976562 7.828125 -2.46875 C 8.710938 -1.96875 9.707031 -1.71875 10.8125 -1.71875 Z M 10.8125 -1.71875 "/></g></g></g><g fill="#ffffff" fill-opacity="1"><g transform="translate(245.694265, 303.181592)"><g><path d="M 12.4375 0.171875 C 10.382812 0.171875 8.523438 -0.285156 6.859375 -1.203125 C 5.191406 -2.117188 3.890625 -3.375 2.953125 -4.96875 C 2.015625 -6.570312 1.546875 -8.375 1.546875 -10.375 C 1.546875 -12.363281 2.015625 -14.15625 2.953125 -15.75 C 3.890625 -17.351562 5.191406 -18.613281 6.859375 -19.53125 C 8.523438 -20.457031 10.382812 -20.921875 12.4375 -20.921875 C 14.5 -20.921875 16.351562 -20.460938 18 -19.546875 C 19.644531 -18.640625 20.941406 -17.378906 21.890625 -15.765625 C 22.835938 -14.160156 23.3125 -12.363281 23.3125 -10.375 C 23.3125 -8.375 22.835938 -6.566406 21.890625 -4.953125 C 20.941406 -3.347656 19.644531 -2.09375 18 -1.1875 C 16.351562 -0.28125 14.5 0.171875 12.4375 0.171875 Z M 12.4375 -1.78125 C 14.082031 -1.78125 15.566406 -2.148438 16.890625 -2.890625 C 18.210938 -3.628906 19.25 -4.65625 20 -5.96875 C 20.75 -7.28125 21.125 -8.75 21.125 -10.375 C 21.125 -11.988281 20.75 -13.453125 20 -14.765625 C 19.25 -16.078125 18.210938 -17.101562 16.890625 -17.84375 C 15.566406 -18.582031 14.082031 -18.953125 12.4375 -18.953125 C 10.800781 -18.953125 9.316406 -18.582031 7.984375 -17.84375 C 6.648438 -17.101562 5.601562 -16.078125 4.84375 -14.765625 C 4.082031 -13.453125 3.703125 -11.988281 3.703125 -10.375 C 3.703125 -8.75 4.082031 -7.28125 4.84375 -5.96875 C 5.601562 -4.65625 6.648438 -3.628906 7.984375 -2.890625 C 9.316406 -2.148438 10.800781 -1.78125 12.4375 -1.78125 Z M 12.4375 -1.78125 "/></g></g></g><g fill="#ffffff" fill-opacity="1"><g transform="translate(272.117674, 303.181592)"><g><path d="M 9.390625 0.140625 C 7.847656 0.140625 6.46875 -0.191406 5.25 -0.859375 C 4.039062 -1.523438 3.085938 -2.46875 2.390625 -3.6875 C 1.703125 -4.90625 1.359375 -6.273438 1.359375 -7.796875 C 1.359375 -9.316406 1.703125 -10.675781 2.390625 -11.875 C 3.085938 -13.082031 4.039062 -14.019531 5.25 -14.6875 C 6.46875 -15.363281 7.847656 -15.703125 9.390625 -15.703125 C 10.734375 -15.703125 11.929688 -15.4375 12.984375 -14.90625 C 14.046875 -14.382812 14.882812 -13.625 15.5 -12.625 L 13.921875 -11.546875 C 13.410156 -12.316406 12.757812 -12.894531 11.96875 -13.28125 C 11.175781 -13.664062 10.316406 -13.859375 9.390625 -13.859375 C 8.265625 -13.859375 7.25 -13.609375 6.34375 -13.109375 C 5.445312 -12.609375 4.75 -11.890625 4.25 -10.953125 C 3.75 -10.023438 3.5 -8.972656 3.5 -7.796875 C 3.5 -6.585938 3.75 -5.523438 4.25 -4.609375 C 4.75 -3.691406 5.445312 -2.976562 6.34375 -2.46875 C 7.25 -1.96875 8.265625 -1.71875 9.390625 -1.71875 C 10.316406 -1.71875 11.175781 -1.90625 11.96875 -2.28125 C 12.757812 -2.65625 13.410156 -3.226562 13.921875 -4 L 15.5 -2.9375 C 14.882812 -1.925781 14.039062 -1.160156 12.96875 -0.640625 C 11.90625 -0.117188 10.710938 0.140625 9.390625 0.140625 Z M 9.390625 0.140625 "/></g></g></g><g fill="#ffffff" fill-opacity="1"><g transform="translate(290.365523, 303.181592)"><g><path d="M 9.390625 0.140625 C 7.847656 0.140625 6.46875 -0.191406 5.25 -0.859375 C 4.039062 -1.523438 3.085938 -2.46875 2.390625 -3.6875 C 1.703125 -4.90625 1.359375 -6.273438 1.359375 -7.796875 C 1.359375 -9.316406 1.703125 -10.675781 2.390625 -11.875 C 3.085938 -13.082031 4.039062 -14.019531 5.25 -14.6875 C 6.46875 -15.363281 7.847656 -15.703125 9.390625 -15.703125 C 10.734375 -15.703125 11.929688 -15.4375 12.984375 -14.90625 C 14.046875 -14.382812 14.882812 -13.625 15.5 -12.625 L 13.921875 -11.546875 C 13.410156 -12.316406 12.757812 -12.894531 11.96875 -13.28125 C 11.175781 -13.664062 10.316406 -13.859375 9.390625 -13.859375 C 8.265625 -13.859375 7.25 -13.609375 6.34375 -13.109375 C 5.445312 -12.609375 4.75 -11.890625 4.25 -10.953125 C 3.75 -10.023438 3.5 -8.972656 3.5 -7.796875 C 3.5 -6.585938 3.75 -5.523438 4.25 -4.609375 C 4.75 -3.691406 5.445312 -2.976562 6.34375 -2.46875 C 7.25 -1.96875 8.265625 -1.71875 9.390625 -1.71875 C 10.316406 -1.71875 11.175781 -1.90625 11.96875 -2.28125 C 12.757812 -2.65625 13.410156 -3.226562 13.921875 -4 L 15.5 -2.9375 C 14.882812 -1.925781 14.039062 -1.160156 12.96875 -0.640625 C 11.90625 -0.117188 10.710938 0.140625 9.390625 0.140625 Z M 9.390625 0.140625 "/></g></g></g><g fill="#ffffff" fill-opacity="1"><g transform="translate(308.613373, 303.181592)"><g><path d="M 2.9375 -15.578125 L 5.03125 -15.578125 L 5.03125 0 L 2.9375 0 Z M 4 -18.984375 C 3.5625 -18.984375 3.195312 -19.128906 2.90625 -19.421875 C 2.613281 -19.722656 2.46875 -20.082031 2.46875 -20.5 C 2.46875 -20.894531 2.613281 -21.238281 2.90625 -21.53125 C 3.195312 -21.832031 3.5625 -21.984375 4 -21.984375 C 4.4375 -21.984375 4.800781 -21.835938 5.09375 -21.546875 C 5.394531 -21.265625 5.546875 -20.925781 5.546875 -20.53125 C 5.546875 -20.09375 5.394531 -19.722656 5.09375 -19.421875 C 4.800781 -19.128906 4.4375 -18.984375 4 -18.984375 Z M 4 -18.984375 "/></g></g></g><g fill="#ffffff" fill-opacity="1"><g transform="translate(318.15247, 303.181592)"><g><path d="M 11.140625 -0.953125 C 10.742188 -0.597656 10.253906 -0.328125 9.671875 -0.140625 C 9.085938 0.046875 8.476562 0.140625 7.84375 0.140625 C 6.382812 0.140625 5.257812 -0.25 4.46875 -1.03125 C 3.675781 -1.820312 3.28125 -2.941406 3.28125 -4.390625 L 3.28125 -13.8125 L 0.5 -13.8125 L 0.5 -15.578125 L 3.28125 -15.578125 L 3.28125 -18.984375 L 5.390625 -18.984375 L 5.390625 -15.578125 L 10.125 -15.578125 L 10.125 -13.8125 L 5.390625 -13.8125 L 5.390625 -4.5 C 5.390625 -3.570312 5.617188 -2.863281 6.078125 -2.375 C 6.546875 -1.894531 7.21875 -1.65625 8.09375 -1.65625 C 8.519531 -1.65625 8.9375 -1.722656 9.34375 -1.859375 C 9.75 -2.003906 10.097656 -2.203125 10.390625 -2.453125 Z M 11.140625 -0.953125 "/></g></g></g><g fill="#ffffff" fill-opacity="1"><g transform="translate(331.749722, 303.181592)"><g><path d="M 8.390625 -15.703125 C 10.421875 -15.703125 11.976562 -15.191406 13.0625 -14.171875 C 14.144531 -13.160156 14.6875 -11.65625 14.6875 -9.65625 L 14.6875 0 L 12.671875 0 L 12.671875 -2.421875 C 12.203125 -1.617188 11.507812 -0.988281 10.59375 -0.53125 C 9.675781 -0.0820312 8.582031 0.140625 7.3125 0.140625 C 5.570312 0.140625 4.1875 -0.269531 3.15625 -1.09375 C 2.132812 -1.925781 1.625 -3.023438 1.625 -4.390625 C 1.625 -5.710938 2.101562 -6.773438 3.0625 -7.578125 C 4.019531 -8.390625 5.546875 -8.796875 7.640625 -8.796875 L 12.59375 -8.796875 L 12.59375 -9.75 C 12.59375 -11.09375 12.21875 -12.113281 11.46875 -12.8125 C 10.71875 -13.507812 9.617188 -13.859375 8.171875 -13.859375 C 7.179688 -13.859375 6.234375 -13.695312 5.328125 -13.375 C 4.421875 -13.050781 3.640625 -12.601562 2.984375 -12.03125 L 2.046875 -13.59375 C 2.835938 -14.269531 3.785156 -14.789062 4.890625 -15.15625 C 5.992188 -15.519531 7.160156 -15.703125 8.390625 -15.703125 Z M 7.640625 -1.515625 C 8.828125 -1.515625 9.84375 -1.785156 10.6875 -2.328125 C 11.539062 -2.867188 12.175781 -3.65625 12.59375 -4.6875 L 12.59375 -7.234375 L 7.703125 -7.234375 C 5.035156 -7.234375 3.703125 -6.300781 3.703125 -4.4375 C 3.703125 -3.53125 4.046875 -2.816406 4.734375 -2.296875 C 5.429688 -1.773438 6.398438 -1.515625 7.640625 -1.515625 Z M 7.640625 -1.515625 "/></g></g></g><g fill="#ffffff" fill-opacity="1"><g transform="translate(350.797355, 303.181592)"><g><path d="M 10.875 -15.703125 C 12.832031 -15.703125 14.382812 -15.132812 15.53125 -14 C 16.6875 -12.863281 17.265625 -11.207031 17.265625 -9.03125 L 17.265625 0 L 15.171875 0 L 15.171875 -8.828125 C 15.171875 -10.441406 14.765625 -11.675781 13.953125 -12.53125 C 13.140625 -13.382812 11.984375 -13.8125 10.484375 -13.8125 C 8.804688 -13.8125 7.476562 -13.3125 6.5 -12.3125 C 5.519531 -11.3125 5.03125 -9.929688 5.03125 -8.171875 L 5.03125 0 L 2.9375 0 L 2.9375 -15.578125 L 4.953125 -15.578125 L 4.953125 -12.703125 C 5.523438 -13.648438 6.316406 -14.382812 7.328125 -14.90625 C 8.347656 -15.4375 9.53125 -15.703125 10.875 -15.703125 Z M 10.875 -15.703125 "/></g></g></g><g fill="#ffffff" fill-opacity="1"><g transform="translate(372.422064, 303.181592)"><g><path d="M 2.9375 -15.578125 L 5.03125 -15.578125 L 5.03125 0 L 2.9375 0 Z M 4 -18.984375 C 3.5625 -18.984375 3.195312 -19.128906 2.90625 -19.421875 C 2.613281 -19.722656 2.46875 -20.082031 2.46875 -20.5 C 2.46875 -20.894531 2.613281 -21.238281 2.90625 -21.53125 C 3.195312 -21.832031 3.5625 -21.984375 4 -21.984375 C 4.4375 -21.984375 4.800781 -21.835938 5.09375 -21.546875 C 5.394531 -21.265625 5.546875 -20.925781 5.546875 -20.53125 C 5.546875 -20.09375 5.394531 -19.722656 5.09375 -19.421875 C 4.800781 -19.128906 4.4375 -18.984375 4 -18.984375 Z M 4 -18.984375 "/></g></g></g><g fill="#ffffff" fill-opacity="1"><g transform="translate(381.961174, 303.181592)"><g><path d="M 16.5 -7.140625 L 3.46875 -7.140625 C 3.582031 -5.515625 4.203125 -4.203125 5.328125 -3.203125 C 6.453125 -2.210938 7.875 -1.71875 9.59375 -1.71875 C 10.5625 -1.71875 11.453125 -1.890625 12.265625 -2.234375 C 13.078125 -2.578125 13.78125 -3.085938 14.375 -3.765625 L 15.546875 -2.40625 C 14.859375 -1.570312 13.992188 -0.9375 12.953125 -0.5 C 11.921875 -0.0703125 10.785156 0.140625 9.546875 0.140625 C 7.941406 0.140625 6.519531 -0.195312 5.28125 -0.875 C 4.050781 -1.550781 3.085938 -2.492188 2.390625 -3.703125 C 1.703125 -4.910156 1.359375 -6.273438 1.359375 -7.796875 C 1.359375 -9.316406 1.6875 -10.675781 2.34375 -11.875 C 3.007812 -13.082031 3.921875 -14.019531 5.078125 -14.6875 C 6.234375 -15.363281 7.53125 -15.703125 8.96875 -15.703125 C 10.414062 -15.703125 11.710938 -15.363281 12.859375 -14.6875 C 14.003906 -14.019531 14.898438 -13.085938 15.546875 -11.890625 C 16.203125 -10.703125 16.53125 -9.335938 16.53125 -7.796875 Z M 8.96875 -13.890625 C 7.46875 -13.890625 6.207031 -13.410156 5.1875 -12.453125 C 4.175781 -11.492188 3.601562 -10.242188 3.46875 -8.703125 L 14.515625 -8.703125 C 14.378906 -10.242188 13.800781 -11.492188 12.78125 -12.453125 C 11.757812 -13.410156 10.488281 -13.890625 8.96875 -13.890625 Z M 8.96875 -13.890625 "/></g></g></g><g fill="#ffffff" fill-opacity="1"><g transform="translate(236.599793, 344.410426)"><g><path d="M 15.703125 -1.890625 L 15.703125 0 L 1.15625 0 L 1.15625 -1.515625 L 9.78125 -9.953125 C 10.863281 -11.015625 11.597656 -11.9375 11.984375 -12.71875 C 12.367188 -13.5 12.5625 -14.285156 12.5625 -15.078125 C 12.5625 -16.304688 12.140625 -17.257812 11.296875 -17.9375 C 10.460938 -18.613281 9.265625 -18.953125 7.703125 -18.953125 C 5.273438 -18.953125 3.390625 -18.1875 2.046875 -16.65625 L 0.53125 -17.953125 C 1.34375 -18.898438 2.375 -19.628906 3.625 -20.140625 C 4.882812 -20.660156 6.300781 -20.921875 7.875 -20.921875 C 9.988281 -20.921875 11.660156 -20.421875 12.890625 -19.421875 C 14.128906 -18.421875 14.75 -17.050781 14.75 -15.3125 C 14.75 -14.25 14.507812 -13.222656 14.03125 -12.234375 C 13.5625 -11.242188 12.664062 -10.109375 11.34375 -8.828125 L 4.296875 -1.890625 Z M 15.703125 -1.890625 "/></g></g></g><g fill="#ffffff" fill-opacity="1"><g transform="translate(254.995744, 344.410426)"><g><path d="M 9.8125 0.171875 C 8.207031 0.171875 6.773438 -0.25 5.515625 -1.09375 C 4.265625 -1.945312 3.289062 -3.164062 2.59375 -4.75 C 1.894531 -6.34375 1.546875 -8.21875 1.546875 -10.375 C 1.546875 -12.519531 1.894531 -14.390625 2.59375 -15.984375 C 3.289062 -17.578125 4.265625 -18.796875 5.515625 -19.640625 C 6.773438 -20.492188 8.207031 -20.921875 9.8125 -20.921875 C 11.40625 -20.921875 12.828125 -20.492188 14.078125 -19.640625 C 15.335938 -18.796875 16.320312 -17.578125 17.03125 -15.984375 C 17.738281 -14.390625 18.09375 -12.519531 18.09375 -10.375 C 18.09375 -8.21875 17.738281 -6.34375 17.03125 -4.75 C 16.320312 -3.164062 15.335938 -1.945312 14.078125 -1.09375 C 12.828125 -0.25 11.40625 0.171875 9.8125 0.171875 Z M 9.8125 -1.78125 C 11.007812 -1.78125 12.066406 -2.113281 12.984375 -2.78125 C 13.910156 -3.457031 14.628906 -4.4375 15.140625 -5.71875 C 15.648438 -7 15.90625 -8.550781 15.90625 -10.375 C 15.90625 -12.1875 15.648438 -13.734375 15.140625 -15.015625 C 14.628906 -16.304688 13.910156 -17.285156 12.984375 -17.953125 C 12.066406 -18.617188 11.007812 -18.953125 9.8125 -18.953125 C 8.601562 -18.953125 7.539062 -18.617188 6.625 -17.953125 C 5.707031 -17.285156 4.988281 -16.304688 4.46875 -15.015625 C 3.957031 -13.734375 3.703125 -12.1875 3.703125 -10.375 C 3.703125 -8.550781 3.957031 -7 4.46875 -5.71875 C 4.988281 -4.4375 5.707031 -3.457031 6.625 -2.78125 C 7.539062 -2.113281 8.601562 -1.78125 9.8125 -1.78125 Z M 9.8125 -1.78125 "/></g></g></g><g fill="#ffffff" fill-opacity="1"><g transform="translate(276.176125, 344.410426)"><g><path d="M 15.703125 -1.890625 L 15.703125 0 L 1.15625 0 L 1.15625 -1.515625 L 9.78125 -9.953125 C 10.863281 -11.015625 11.597656 -11.9375 11.984375 -12.71875 C 12.367188 -13.5 12.5625 -14.285156 12.5625 -15.078125 C 12.5625 -16.304688 12.140625 -17.257812 11.296875 -17.9375 C 10.460938 -18.613281 9.265625 -18.953125 7.703125 -18.953125 C 5.273438 -18.953125 3.390625 -18.1875 2.046875 -16.65625 L 0.53125 -17.953125 C 1.34375 -18.898438 2.375 -19.628906 3.625 -20.140625 C 4.882812 -20.660156 6.300781 -20.921875 7.875 -20.921875 C 9.988281 -20.921875 11.660156 -20.421875 12.890625 -19.421875 C 14.128906 -18.421875 14.75 -17.050781 14.75 -15.3125 C 14.75 -14.25 14.507812 -13.222656 14.03125 -12.234375 C 13.5625 -11.242188 12.664062 -10.109375 11.34375 -8.828125 L 4.296875 -1.890625 Z M 15.703125 -1.890625 "/></g></g></g><g fill="#ffffff" fill-opacity="1"><g transform="translate(294.572076, 344.410426)"><g><path d="M 8.59375 -11.84375 C 10.757812 -11.726562 12.410156 -11.140625 13.546875 -10.078125 C 14.679688 -9.023438 15.25 -7.648438 15.25 -5.953125 C 15.25 -4.765625 14.960938 -3.710938 14.390625 -2.796875 C 13.816406 -1.878906 12.96875 -1.15625 11.84375 -0.625 C 10.71875 -0.09375 9.347656 0.171875 7.734375 0.171875 C 6.234375 0.171875 4.816406 -0.0664062 3.484375 -0.546875 C 2.148438 -1.035156 1.078125 -1.679688 0.265625 -2.484375 L 1.296875 -4.171875 C 1.992188 -3.460938 2.914062 -2.882812 4.0625 -2.4375 C 5.207031 -2 6.429688 -1.78125 7.734375 -1.78125 C 9.429688 -1.78125 10.742188 -2.148438 11.671875 -2.890625 C 12.597656 -3.628906 13.0625 -4.648438 13.0625 -5.953125 C 13.0625 -7.234375 12.597656 -8.238281 11.671875 -8.96875 C 10.742188 -9.707031 9.34375 -10.078125 7.46875 -10.078125 L 5.984375 -10.078125 L 5.984375 -11.640625 L 11.734375 -18.84375 L 1.125 -18.84375 L 1.125 -20.734375 L 14.453125 -20.734375 L 14.453125 -19.234375 Z M 8.59375 -11.84375 "/></g></g></g></g></g></svg>