<svg xmlns="http://www.w3.org/2000/svg" xmlns:xlink="http://www.w3.org/1999/xlink" width="794" zoomAndPan="magnify" viewBox="0 0 595.5 842.249979" height="1123" preserveAspectRatio="xMidYMid meet" version="1.0"><defs><g/><clipPath id="59a1b145aa"><path d="M 78 0.703125 L 122 0.703125 L 122 72 L 78 72 Z M 78 0.703125 " clip-rule="nonzero"/></clipPath><clipPath id="06bb64d803"><path d="M 0.589844 273 L 93 273 L 93 386 L 0.589844 386 Z M 0.589844 273 " clip-rule="nonzero"/></clipPath><clipPath id="27da327332"><path d="M 74 367 L 230 367 L 230 475.097656 L 74 475.097656 Z M 74 367 " clip-rule="nonzero"/></clipPath><clipPath id="7ee7978114"><path d="M 418 0.703125 L 462 0.703125 L 462 72 L 418 72 Z M 418 0.703125 " clip-rule="nonzero"/></clipPath><clipPath id="3ecfe82d56"><path d="M 447 273 L 539.542969 273 L 539.542969 386 L 447 386 Z M 447 273 " clip-rule="nonzero"/></clipPath><clipPath id="46e0274fd7"><path d="M 310 367 L 467 367 L 467 475.097656 L 310 475.097656 Z M 310 367 " clip-rule="nonzero"/></clipPath><clipPath id="99aeacbcce"><rect x="0" width="540" y="0" height="476"/></clipPath></defs><g transform="matrix(1, 0, 0, 1, 27, 180)"><g clip-path="url(#99aeacbcce)"><g clip-path="url(#59a1b145aa)"><path fill="#ffffff" d="M 98.207031 49.433594 C 111.984375 39.128906 120.863281 17.003906 121.339844 0.703125 C 104.527344 4.699219 86.5 28.882812 85.730469 46.5 C 85.417969 53.472656 82.238281 65.246094 78.550781 71.519531 C 82.601562 64.648438 91.832031 54.203125 98.207031 49.433594 Z M 98.207031 49.433594 " fill-opacity="1" fill-rule="nonzero"/></g><path fill="#ffffff" d="M 52.441406 127.988281 C 56.558594 120.742188 60.171875 113.351562 63.703125 105.910156 C 65.730469 101.613281 69.183594 99.746094 73.664062 98.417969 C 81.5 96.09375 89.46875 93.699219 96.71875 90.03125 C 108.207031 84.214844 114.792969 73.53125 121.527344 62.421875 C 95.511719 61.042969 78.949219 74.441406 66.140625 94.894531 C 72.4375 73.339844 81.273438 52.296875 67.875 30.066406 C 53.578125 47.589844 48 68.085938 57.761719 87.761719 C 60.996094 94.289062 61.472656 100.378906 58.902344 107.191406 C 56.339844 113.976562 54.566406 121.042969 52.441406 127.988281 Z M 52.441406 127.988281 " fill-opacity="1" fill-rule="nonzero"/><path fill="#ffffff" d="M 27.734375 219.886719 C 33.1875 225.652344 36.746094 231.945312 37.640625 240.019531 C 38.539062 248.175781 40.34375 256.230469 41.644531 263.679688 C 41.644531 255.21875 41.214844 246.195312 41.832031 237.246094 C 42.117188 233.160156 43.71875 228.707031 46.046875 225.332031 C 49.222656 220.683594 53.453125 216.6875 57.5625 212.761719 C 71.773438 199.210938 77.011719 181.945312 78.75 163.035156 C 70.34375 164.34375 60.304688 171.003906 54.433594 178.992188 C 45.277344 191.441406 42.070312 205.796875 40.902344 220.824219 C 40.769531 222.550781 40.847656 222.152344 40.550781 223.859375 C 40.183594 226.8125 39.59375 229.734375 39.070312 229.761719 C 38.53125 228.359375 37.390625 222.730469 37.230469 221.28125 C 36.246094 212.636719 35.230469 204.507812 34.253906 195.863281 C 32.164062 177.277344 22.894531 162.75 8.492188 150.398438 C 3.40625 169.960938 4.375 188.148438 15.597656 204.867188 C 19.1875 210.1875 23.324219 215.226562 27.734375 219.886719 Z M 27.734375 219.886719 " fill-opacity="1" fill-rule="nonzero"/><path fill="#ffffff" d="M 40.351562 173.253906 C 39.042969 181.574219 39.082031 193.234375 39.449219 201.355469 C 41.84375 192.011719 42.269531 179.726562 44.242188 170.351562 C 45.5625 164.097656 49.089844 159.554688 54.925781 156.707031 C 58.824219 154.800781 62.535156 152.515625 66.308594 150.359375 C 81.945312 141.394531 92.523438 128.339844 98.1875 110.597656 C 68.484375 112.410156 55.683594 132.382812 44.980469 156.726562 C 44.535156 154.507812 44.8125 152.542969 45.011719 150.570312 C 45.714844 143.710938 46.539062 136.871094 47.335938 130.019531 C 49.488281 111.460938 45.828125 94.460938 33.246094 79.335938 C 32.382812 80.882812 31.511719 82.238281 30.828125 83.691406 C 20.21875 106.074219 20.714844 127.914062 34.832031 148.644531 C 40.058594 156.320312 41.792969 164.136719 40.351562 173.253906 Z M 40.351562 173.253906 " fill-opacity="1" fill-rule="nonzero"/><path fill="#ffffff" d="M 31.445312 283.128906 C 39.382812 288.195312 44.117188 294.789062 46.425781 303.859375 C 48.53125 312.132812 53.226562 322.988281 56.8125 330.394531 C 55.304688 320.738281 50.796875 309.117188 48.890625 299.601562 C 47.621094 293.253906 49.101562 287.609375 53.398438 282.625 C 56.273438 279.296875 58.816406 275.683594 61.460938 272.160156 C 72.4375 257.558594 77.089844 241.175781 75.285156 222.378906 C 48.332031 235.9375 44.382812 259.648438 44.136719 286.601562 C 42.828125 284.714844 42.308594 282.777344 41.710938 280.851562 C 39.621094 274.183594 37.65625 267.476562 35.664062 260.777344 C 30.257812 242.628906 20.050781 228.253906 2.296875 219.183594 C 2.109375 220.96875 1.84375 222.578125 1.785156 224.210938 C 0.828125 249.304688 10.011719 269.449219 31.445312 283.128906 Z M 31.445312 283.128906 " fill-opacity="1" fill-rule="nonzero"/><g clip-path="url(#06bb64d803)"><path fill="#ffffff" d="M 73.445312 363.289062 C 78.398438 370.625 86.785156 379.578125 92.875 385.558594 C 88.019531 376.65625 79.546875 366.894531 74.355469 358.269531 C 70.894531 352.519531 70.363281 346.496094 72.808594 340.121094 C 74.449219 335.859375 75.664062 331.441406 77.023438 327.085938 C 82.628906 308.984375 81.414062 291.363281 73.074219 273.652344 C 51.519531 296.328125 55.96875 320.851562 65.171875 347.246094 C 63.238281 345.859375 62.042969 344.152344 60.777344 342.484375 C 56.40625 336.707031 52.136719 330.84375 47.847656 325.007812 C 36.207031 309.191406 21.214844 298.726562 0.703125 296.097656 C 1.140625 297.910156 1.453125 299.582031 1.964844 301.183594 C 9.839844 326.003906 25.863281 342.457031 51.566406 348.300781 C 61.082031 350.460938 68.027344 355.234375 73.445312 363.289062 Z M 73.445312 363.289062 " fill-opacity="1" fill-rule="nonzero"/></g><path fill="#ffffff" d="M 94.261719 406.667969 C 104.667969 405.984375 113.234375 408.753906 121.242188 415.339844 C 128.546875 421.34375 139.867188 427.949219 147.933594 432.21875 C 140.238281 424.578125 128.597656 417.167969 120.644531 409.921875 C 115.34375 405.09375 112.960938 399.078125 113.519531 391.808594 C 113.898438 386.953125 113.796875 382.054688 113.851562 377.171875 C 114.070312 356.921875 107.457031 339.25 93.511719 323.660156 C 78.351562 353.453125 90.390625 377.21875 107.867188 401.4375 C 105.457031 400.613281 103.71875 399.230469 101.917969 397.902344 C 95.675781 393.316406 89.515625 388.621094 83.339844 383.953125 C 66.59375 371.308594 48.046875 365.167969 26.246094 368.726562 C 27.25 370.445312 28.074219 372.054688 29.082031 373.546875 C 44.734375 396.570312 66.160156 408.527344 94.261719 406.667969 Z M 94.261719 406.667969 " fill-opacity="1" fill-rule="nonzero"/><g clip-path="url(#27da327332)"><path fill="#ffffff" d="M 214.183594 463.363281 C 208.9375 462.546875 203.691406 461.183594 198.492188 459.484375 C 196.003906 458.667969 193.527344 457.785156 191.0625 456.847656 C 188.566406 455.59375 186.175781 454.332031 183.976562 453.042969 C 177.238281 449.085938 173.347656 443.222656 172.316406 435.355469 C 171.621094 430.101562 170.417969 424.902344 169.375 419.691406 C 165.046875 398.082031 154.023438 380.738281 135.65625 367.273438 C 126.214844 402.425781 144.394531 425.023438 168.460938 446.882812 C 165.710938 446.542969 163.546875 445.460938 161.328125 444.457031 C 153.652344 440.972656 146.035156 437.359375 138.398438 433.78125 C 117.714844 424.078125 96.574219 421.714844 74.15625 430.414062 C 75.609375 432.019531 76.851562 433.554688 78.265625 434.910156 C 100.09375 455.90625 125.609375 463.820312 155.132812 455.507812 C 166.070312 452.433594 175.804688 453.460938 185.824219 458.675781 C 186.089844 458.820312 186.367188 458.953125 186.640625 459.09375 C 189.800781 461.003906 193.015625 462.851562 196.328125 464.578125 C 201.367188 467.214844 206.632812 469.578125 212.179688 471.429688 C 217.722656 473.289062 223.585938 474.589844 229.65625 475.082031 L 229.6875 464.019531 C 224.65625 464.445312 219.429688 464.199219 214.183594 463.363281 Z M 214.183594 463.363281 " fill-opacity="1" fill-rule="nonzero"/></g><g clip-path="url(#7ee7978114)"><path fill="#ffffff" d="M 442.027344 49.433594 C 428.25 39.128906 419.371094 17.003906 418.894531 0.703125 C 435.707031 4.699219 453.734375 28.882812 454.503906 46.5 C 454.816406 53.472656 457.996094 65.246094 461.683594 71.519531 C 457.644531 64.648438 448.402344 54.203125 442.027344 49.433594 Z M 442.027344 49.433594 " fill-opacity="1" fill-rule="nonzero"/></g><path fill="#ffffff" d="M 487.792969 127.988281 C 483.675781 120.742188 480.0625 113.351562 476.53125 105.910156 C 474.503906 101.613281 471.050781 99.746094 466.570312 98.417969 C 458.734375 96.09375 450.765625 93.699219 443.515625 90.03125 C 432.027344 84.214844 425.441406 73.53125 418.707031 62.421875 C 444.722656 61.042969 461.285156 74.449219 474.09375 94.90625 C 467.796875 73.351562 458.960938 52.308594 472.359375 30.078125 C 486.65625 47.589844 492.234375 68.09375 482.472656 87.769531 C 479.238281 94.296875 478.761719 100.390625 481.332031 107.203125 C 483.894531 113.976562 485.667969 121.042969 487.792969 127.988281 Z M 487.792969 127.988281 " fill-opacity="1" fill-rule="nonzero"/><path fill="#ffffff" d="M 512.5 219.886719 C 507.046875 225.652344 503.488281 231.945312 502.59375 240.019531 C 501.695312 248.175781 499.890625 256.230469 498.589844 263.679688 C 498.589844 255.21875 499.019531 246.195312 498.402344 237.246094 C 498.117188 233.160156 496.515625 228.707031 494.191406 225.332031 C 491.011719 220.683594 486.78125 216.6875 482.671875 212.761719 C 468.460938 199.210938 463.222656 181.945312 461.484375 163.035156 C 469.890625 164.34375 479.929688 171.003906 485.800781 178.992188 C 494.957031 191.441406 498.164062 205.796875 499.332031 220.824219 C 499.464844 222.550781 499.386719 222.152344 499.683594 223.859375 C 500.054688 226.8125 500.640625 229.734375 501.164062 229.761719 C 501.703125 228.359375 502.84375 222.730469 503.003906 221.28125 C 503.988281 212.636719 505.003906 204.507812 505.984375 195.863281 C 508.070312 177.277344 517.339844 162.75 531.742188 150.398438 C 536.828125 169.960938 535.859375 188.148438 524.636719 204.867188 C 521.046875 210.1875 516.914062 215.226562 512.5 219.886719 Z M 512.5 219.886719 " fill-opacity="1" fill-rule="nonzero"/><path fill="#ffffff" d="M 499.882812 173.253906 C 501.191406 181.574219 501.152344 193.234375 500.785156 201.355469 C 498.390625 192.011719 497.964844 179.726562 495.992188 170.351562 C 494.671875 164.097656 491.144531 159.554688 485.308594 156.707031 C 481.410156 154.800781 477.699219 152.515625 473.925781 150.359375 C 458.289062 141.394531 447.710938 128.339844 442.046875 110.597656 C 471.75 112.410156 484.550781 132.382812 495.253906 156.726562 C 495.699219 154.507812 495.421875 152.542969 495.222656 150.570312 C 494.523438 143.710938 493.695312 136.871094 492.898438 130.019531 C 490.746094 111.460938 494.40625 94.460938 506.988281 79.335938 C 507.851562 80.882812 508.722656 82.238281 509.40625 83.691406 C 520.015625 106.074219 519.519531 127.914062 505.402344 148.644531 C 500.175781 156.320312 498.441406 164.136719 499.882812 173.253906 Z M 499.882812 173.253906 " fill-opacity="1" fill-rule="nonzero"/><path fill="#ffffff" d="M 508.800781 283.128906 C 500.859375 288.195312 496.125 294.789062 493.820312 303.859375 C 491.714844 312.132812 487.015625 322.988281 483.429688 330.394531 C 484.9375 320.738281 489.445312 309.117188 491.351562 299.601562 C 492.625 293.253906 491.144531 287.609375 486.847656 282.625 C 483.972656 279.296875 481.429688 275.683594 478.78125 272.160156 C 467.804688 257.558594 463.15625 241.175781 464.957031 222.378906 C 491.914062 235.9375 495.859375 259.648438 496.105469 286.601562 C 497.414062 284.714844 497.9375 282.777344 498.535156 280.851562 C 500.621094 274.183594 502.585938 267.476562 504.578125 260.777344 C 509.984375 242.628906 520.195312 228.253906 537.945312 219.183594 C 538.136719 220.96875 538.402344 222.578125 538.457031 224.210938 C 539.40625 249.304688 530.222656 269.449219 508.800781 283.128906 Z M 508.800781 283.128906 " fill-opacity="1" fill-rule="nonzero"/><g clip-path="url(#3ecfe82d56)"><path fill="#ffffff" d="M 466.789062 363.289062 C 461.835938 370.625 453.449219 379.578125 447.359375 385.558594 C 452.214844 376.65625 460.6875 366.894531 465.878906 358.269531 C 469.339844 352.519531 469.871094 346.496094 467.425781 340.121094 C 465.785156 335.859375 464.570312 331.441406 463.210938 327.085938 C 457.605469 308.984375 458.820312 291.363281 467.160156 273.652344 C 488.714844 296.328125 484.265625 320.851562 475.0625 347.246094 C 476.996094 345.859375 478.195312 344.152344 479.457031 342.484375 C 483.828125 336.707031 488.097656 330.84375 492.386719 325.007812 C 504.027344 309.191406 519.019531 298.726562 539.53125 296.097656 C 539.09375 297.910156 538.78125 299.582031 538.269531 301.183594 C 530.394531 326.003906 514.371094 342.457031 488.667969 348.300781 C 479.152344 350.460938 472.214844 355.234375 466.789062 363.289062 Z M 466.789062 363.289062 " fill-opacity="1" fill-rule="nonzero"/></g><path fill="#ffffff" d="M 445.972656 406.667969 C 435.566406 405.984375 427 408.753906 418.992188 415.339844 C 411.6875 421.34375 400.367188 427.949219 392.300781 432.21875 C 399.996094 424.578125 411.636719 417.167969 419.589844 409.921875 C 424.890625 405.09375 427.273438 399.078125 426.714844 391.808594 C 426.335938 386.953125 426.4375 382.054688 426.382812 377.171875 C 426.164062 356.921875 432.777344 339.25 446.722656 323.660156 C 461.882812 353.453125 449.84375 377.21875 432.367188 401.4375 C 434.777344 400.613281 436.515625 399.230469 438.316406 397.902344 C 444.558594 393.316406 450.71875 388.621094 456.894531 383.953125 C 473.640625 371.308594 492.1875 365.167969 513.988281 368.726562 C 512.984375 370.445312 512.160156 372.054688 511.152344 373.546875 C 495.507812 396.570312 474.074219 408.527344 445.972656 406.667969 Z M 445.972656 406.667969 " fill-opacity="1" fill-rule="nonzero"/><g clip-path="url(#46e0274fd7)"><path fill="#ffffff" d="M 326.050781 463.363281 C 331.296875 462.546875 336.542969 461.183594 341.742188 459.484375 C 344.230469 458.667969 346.707031 457.785156 349.171875 456.847656 C 351.667969 455.59375 354.058594 454.332031 356.257812 453.042969 C 362.996094 449.085938 366.886719 443.222656 367.917969 435.355469 C 368.613281 430.101562 369.816406 424.902344 370.859375 419.691406 C 375.1875 398.082031 386.210938 380.738281 404.578125 367.273438 C 414.019531 402.425781 395.839844 425.023438 371.773438 446.882812 C 374.523438 446.542969 376.6875 445.460938 378.90625 444.457031 C 386.582031 440.972656 394.199219 437.359375 401.835938 433.78125 C 422.519531 424.078125 443.660156 421.714844 466.078125 430.414062 C 464.625 432.019531 463.382812 433.554688 461.96875 434.910156 C 440.140625 455.90625 414.625 463.820312 385.101562 455.507812 C 374.164062 452.433594 364.429688 453.460938 354.410156 458.675781 C 354.144531 458.820312 353.867188 458.953125 353.59375 459.09375 C 350.433594 461.003906 347.21875 462.851562 343.90625 464.578125 C 338.867188 467.214844 333.601562 469.578125 328.054688 471.429688 C 322.511719 473.289062 316.648438 474.589844 310.578125 475.082031 L 310.546875 464.019531 C 315.578125 464.445312 320.8125 464.199219 326.050781 463.363281 Z M 326.050781 463.363281 " fill-opacity="1" fill-rule="nonzero"/></g><g fill="#ffffff" fill-opacity="1"><g transform="translate(145.993498, 153.049746)"><g><path d="M 22.296875 0 L 16.609375 -8.21875 L 10.328125 -8.21875 L 10.328125 0 L 3.5 0 L 3.5 -29.5 L 16.265625 -29.5 C 18.878906 -29.5 21.144531 -29.0625 23.0625 -28.1875 C 24.988281 -27.320312 26.472656 -26.085938 27.515625 -24.484375 C 28.554688 -22.878906 29.078125 -20.984375 29.078125 -18.796875 C 29.078125 -16.597656 28.550781 -14.707031 27.5 -13.125 C 26.445312 -11.539062 24.953125 -10.328125 23.015625 -9.484375 L 29.625 0 Z M 22.171875 -18.796875 C 22.171875 -20.453125 21.632812 -21.722656 20.5625 -22.609375 C 19.5 -23.492188 17.941406 -23.9375 15.890625 -23.9375 L 10.328125 -23.9375 L 10.328125 -13.65625 L 15.890625 -13.65625 C 17.941406 -13.65625 19.5 -14.101562 20.5625 -15 C 21.632812 -15.894531 22.171875 -17.160156 22.171875 -18.796875 Z M 22.171875 -18.796875 "/></g></g></g><g fill="#ffffff" fill-opacity="1"><g transform="translate(179.201909, 153.049746)"><g><path d="M 25.25 -11.25 C 25.25 -11.164062 25.203125 -10.578125 25.109375 -9.484375 L 7.96875 -9.484375 C 8.269531 -8.078125 9 -6.96875 10.15625 -6.15625 C 11.3125 -5.34375 12.742188 -4.9375 14.453125 -4.9375 C 15.628906 -4.9375 16.675781 -5.109375 17.59375 -5.453125 C 18.507812 -5.804688 19.359375 -6.363281 20.140625 -7.125 L 23.640625 -3.328125 C 21.503906 -0.878906 18.382812 0.34375 14.28125 0.34375 C 11.726562 0.34375 9.46875 -0.15625 7.5 -1.15625 C 5.53125 -2.15625 4.007812 -3.539062 2.9375 -5.3125 C 1.875 -7.082031 1.34375 -9.085938 1.34375 -11.328125 C 1.34375 -13.554688 1.867188 -15.5625 2.921875 -17.34375 C 3.984375 -19.125 5.429688 -20.515625 7.265625 -21.515625 C 9.109375 -22.515625 11.164062 -23.015625 13.4375 -23.015625 C 15.65625 -23.015625 17.664062 -22.535156 19.46875 -21.578125 C 21.269531 -20.617188 22.679688 -19.25 23.703125 -17.46875 C 24.734375 -15.6875 25.25 -13.613281 25.25 -11.25 Z M 13.484375 -18.03125 C 11.992188 -18.03125 10.742188 -17.609375 9.734375 -16.765625 C 8.722656 -15.921875 8.101562 -14.769531 7.875 -13.3125 L 19.046875 -13.3125 C 18.816406 -14.75 18.195312 -15.894531 17.1875 -16.75 C 16.175781 -17.601562 14.941406 -18.03125 13.484375 -18.03125 Z M 15.171875 -31.640625 L 22.25 -31.640625 L 14.625 -25.578125 L 9.46875 -25.578125 Z M 15.171875 -31.640625 "/></g></g></g><g fill="#ffffff" fill-opacity="1"><g transform="translate(208.027503, 153.049746)"><g><path d="M 25.53125 -22.671875 L 15.96875 0 L 9.1875 0 L -0.34375 -22.671875 L 6.453125 -22.671875 L 12.71875 -7.25 L 19.21875 -22.671875 Z M 25.53125 -22.671875 "/></g></g></g><g fill="#ffffff" fill-opacity="1"><g transform="translate(235.462393, 153.049746)"><g><path d="M 25.25 -11.25 C 25.25 -11.164062 25.203125 -10.578125 25.109375 -9.484375 L 7.96875 -9.484375 C 8.269531 -8.078125 9 -6.96875 10.15625 -6.15625 C 11.3125 -5.34375 12.742188 -4.9375 14.453125 -4.9375 C 15.628906 -4.9375 16.675781 -5.109375 17.59375 -5.453125 C 18.507812 -5.804688 19.359375 -6.363281 20.140625 -7.125 L 23.640625 -3.328125 C 21.503906 -0.878906 18.382812 0.34375 14.28125 0.34375 C 11.726562 0.34375 9.46875 -0.15625 7.5 -1.15625 C 5.53125 -2.15625 4.007812 -3.539062 2.9375 -5.3125 C 1.875 -7.082031 1.34375 -9.085938 1.34375 -11.328125 C 1.34375 -13.554688 1.867188 -15.5625 2.921875 -17.34375 C 3.984375 -19.125 5.429688 -20.515625 7.265625 -21.515625 C 9.109375 -22.515625 11.164062 -23.015625 13.4375 -23.015625 C 15.65625 -23.015625 17.664062 -22.535156 19.46875 -21.578125 C 21.269531 -20.617188 22.679688 -19.25 23.703125 -17.46875 C 24.734375 -15.6875 25.25 -13.613281 25.25 -11.25 Z M 13.484375 -18.03125 C 11.992188 -18.03125 10.742188 -17.609375 9.734375 -16.765625 C 8.722656 -15.921875 8.101562 -14.769531 7.875 -13.3125 L 19.046875 -13.3125 C 18.816406 -14.75 18.195312 -15.894531 17.1875 -16.75 C 16.175781 -17.601562 14.941406 -18.03125 13.484375 -18.03125 Z M 15.171875 -31.640625 L 22.25 -31.640625 L 14.625 -25.578125 L 9.46875 -25.578125 Z M 15.171875 -31.640625 "/></g></g></g><g fill="#ffffff" fill-opacity="1"><g transform="translate(264.287987, 153.049746)"><g><path d="M 3.03125 -31.265625 L 9.609375 -31.265625 L 9.609375 0 L 3.03125 0 Z M 3.03125 -31.265625 "/></g></g></g><g fill="#ffffff" fill-opacity="1"><g transform="translate(279.206548, 153.049746)"><g><path d="M 12.171875 -23.015625 C 15.691406 -23.015625 18.390625 -22.175781 20.265625 -20.5 C 22.148438 -18.832031 23.09375 -16.3125 23.09375 -12.9375 L 23.09375 0 L 16.9375 0 L 16.9375 -2.828125 C 15.707031 -0.710938 13.40625 0.34375 10.03125 0.34375 C 8.289062 0.34375 6.78125 0.046875 5.5 -0.546875 C 4.21875 -1.140625 3.238281 -1.953125 2.5625 -2.984375 C 1.894531 -4.023438 1.5625 -5.207031 1.5625 -6.53125 C 1.5625 -8.632812 2.351562 -10.289062 3.9375 -11.5 C 5.53125 -12.707031 7.984375 -13.3125 11.296875 -13.3125 L 16.515625 -13.3125 C 16.515625 -14.75 16.078125 -15.851562 15.203125 -16.625 C 14.335938 -17.394531 13.035156 -17.78125 11.296875 -17.78125 C 10.085938 -17.78125 8.898438 -17.585938 7.734375 -17.203125 C 6.566406 -16.828125 5.578125 -16.316406 4.765625 -15.671875 L 2.40625 -20.265625 C 3.632812 -21.140625 5.113281 -21.816406 6.84375 -22.296875 C 8.570312 -22.773438 10.347656 -23.015625 12.171875 -23.015625 Z M 11.671875 -4.09375 C 12.796875 -4.09375 13.789062 -4.347656 14.65625 -4.859375 C 15.53125 -5.378906 16.148438 -6.144531 16.515625 -7.15625 L 16.515625 -9.484375 L 12.015625 -9.484375 C 9.316406 -9.484375 7.96875 -8.597656 7.96875 -6.828125 C 7.96875 -5.984375 8.296875 -5.316406 8.953125 -4.828125 C 9.609375 -4.335938 10.515625 -4.09375 11.671875 -4.09375 Z M 11.671875 -4.09375 "/></g></g></g><g fill="#ffffff" fill-opacity="1"><g transform="translate(307.442148, 153.049746)"><g><path d="M 17.65625 -1.09375 C 17.007812 -0.613281 16.210938 -0.253906 15.265625 -0.015625 C 14.328125 0.222656 13.34375 0.34375 12.3125 0.34375 C 9.613281 0.34375 7.523438 -0.34375 6.046875 -1.71875 C 4.566406 -3.101562 3.828125 -5.128906 3.828125 -7.796875 L 3.828125 -17.109375 L 0.34375 -17.109375 L 0.34375 -22.171875 L 3.828125 -22.171875 L 3.828125 -27.6875 L 10.40625 -27.6875 L 10.40625 -22.171875 L 16.0625 -22.171875 L 16.0625 -17.109375 L 10.40625 -17.109375 L 10.40625 -7.875 C 10.40625 -6.925781 10.648438 -6.191406 11.140625 -5.671875 C 11.640625 -5.148438 12.335938 -4.890625 13.234375 -4.890625 C 14.273438 -4.890625 15.160156 -5.171875 15.890625 -5.734375 Z M 17.65625 -1.09375 "/></g></g></g><g fill="#ffffff" fill-opacity="1"><g transform="translate(328.007804, 153.049746)"><g><path d="M 3.03125 -22.671875 L 9.609375 -22.671875 L 9.609375 0 L 3.03125 0 Z M 6.328125 -25.828125 C 5.117188 -25.828125 4.132812 -26.175781 3.375 -26.875 C 2.613281 -27.582031 2.234375 -28.457031 2.234375 -29.5 C 2.234375 -30.539062 2.613281 -31.410156 3.375 -32.109375 C 4.132812 -32.816406 5.117188 -33.171875 6.328125 -33.171875 C 7.535156 -33.171875 8.519531 -32.832031 9.28125 -32.15625 C 10.039062 -31.476562 10.421875 -30.632812 10.421875 -29.625 C 10.421875 -28.53125 10.039062 -27.625 9.28125 -26.90625 C 8.519531 -26.1875 7.535156 -25.828125 6.328125 -25.828125 Z M 6.328125 -25.828125 "/></g></g></g><g fill="#ffffff" fill-opacity="1"><g transform="translate(342.926376, 153.049746)"><g><path d="M 13.828125 0.34375 C 11.429688 0.34375 9.285156 -0.15625 7.390625 -1.15625 C 5.492188 -2.15625 4.007812 -3.539062 2.9375 -5.3125 C 1.875 -7.082031 1.34375 -9.085938 1.34375 -11.328125 C 1.34375 -13.578125 1.875 -15.585938 2.9375 -17.359375 C 4.007812 -19.128906 5.492188 -20.515625 7.390625 -21.515625 C 9.285156 -22.515625 11.429688 -23.015625 13.828125 -23.015625 C 16.210938 -23.015625 18.34375 -22.515625 20.21875 -21.515625 C 22.101562 -20.515625 23.578125 -19.128906 24.640625 -17.359375 C 25.710938 -15.585938 26.25 -13.578125 26.25 -11.328125 C 26.25 -9.085938 25.710938 -7.082031 24.640625 -5.3125 C 23.578125 -3.539062 22.101562 -2.15625 20.21875 -1.15625 C 18.34375 -0.15625 16.210938 0.34375 13.828125 0.34375 Z M 13.828125 -5.0625 C 15.503906 -5.0625 16.882812 -5.628906 17.96875 -6.765625 C 19.050781 -7.898438 19.59375 -9.421875 19.59375 -11.328125 C 19.59375 -13.242188 19.050781 -14.769531 17.96875 -15.90625 C 16.882812 -17.039062 15.503906 -17.609375 13.828125 -17.609375 C 12.140625 -17.609375 10.742188 -17.039062 9.640625 -15.90625 C 8.546875 -14.769531 8 -13.242188 8 -11.328125 C 8 -9.421875 8.546875 -7.898438 9.640625 -6.765625 C 10.742188 -5.628906 12.140625 -5.0625 13.828125 -5.0625 Z M 13.828125 -5.0625 "/></g></g></g><g fill="#ffffff" fill-opacity="1"><g transform="translate(372.763384, 153.049746)"><g><path d="M 16.8125 -23.015625 C 19.625 -23.015625 21.894531 -22.171875 23.625 -20.484375 C 25.351562 -18.796875 26.21875 -16.296875 26.21875 -12.984375 L 26.21875 0 L 19.640625 0 L 19.640625 -11.96875 C 19.640625 -13.769531 19.242188 -15.109375 18.453125 -15.984375 C 17.671875 -16.867188 16.535156 -17.3125 15.046875 -17.3125 C 13.390625 -17.3125 12.066406 -16.800781 11.078125 -15.78125 C 10.097656 -14.757812 9.609375 -13.234375 9.609375 -11.203125 L 9.609375 0 L 3.03125 0 L 3.03125 -22.671875 L 9.3125 -22.671875 L 9.3125 -20.015625 C 10.1875 -20.972656 11.269531 -21.710938 12.5625 -22.234375 C 13.851562 -22.753906 15.269531 -23.015625 16.8125 -23.015625 Z M 16.8125 -23.015625 "/></g></g></g><g fill="#ffffff" fill-opacity="1"><g transform="translate(162.157074, 211.519729)"><g><path d="M 10.328125 -24.015625 L 10.328125 -16.21875 L 23.984375 -16.21875 L 23.984375 -10.75 L 10.328125 -10.75 L 10.328125 0 L 3.5 0 L 3.5 -29.5 L 25.796875 -29.5 L 25.796875 -24.015625 Z M 10.328125 -24.015625 "/></g></g></g><g fill="#ffffff" fill-opacity="1"><g transform="translate(191.31981, 211.519729)"><g><path d="M 25.25 -11.25 C 25.25 -11.164062 25.203125 -10.578125 25.109375 -9.484375 L 7.96875 -9.484375 C 8.269531 -8.078125 9 -6.96875 10.15625 -6.15625 C 11.3125 -5.34375 12.742188 -4.9375 14.453125 -4.9375 C 15.628906 -4.9375 16.675781 -5.109375 17.59375 -5.453125 C 18.507812 -5.804688 19.359375 -6.363281 20.140625 -7.125 L 23.640625 -3.328125 C 21.503906 -0.878906 18.382812 0.34375 14.28125 0.34375 C 11.726562 0.34375 9.46875 -0.15625 7.5 -1.15625 C 5.53125 -2.15625 4.007812 -3.539062 2.9375 -5.3125 C 1.875 -7.082031 1.34375 -9.085938 1.34375 -11.328125 C 1.34375 -13.554688 1.867188 -15.5625 2.921875 -17.34375 C 3.984375 -19.125 5.429688 -20.515625 7.265625 -21.515625 C 9.109375 -22.515625 11.164062 -23.015625 13.4375 -23.015625 C 15.65625 -23.015625 17.664062 -22.535156 19.46875 -21.578125 C 21.269531 -20.617188 22.679688 -19.25 23.703125 -17.46875 C 24.734375 -15.6875 25.25 -13.613281 25.25 -11.25 Z M 13.484375 -18.03125 C 11.992188 -18.03125 10.742188 -17.609375 9.734375 -16.765625 C 8.722656 -15.921875 8.101562 -14.769531 7.875 -13.3125 L 19.046875 -13.3125 C 18.816406 -14.75 18.195312 -15.894531 17.1875 -16.75 C 16.175781 -17.601562 14.941406 -18.03125 13.484375 -18.03125 Z M 15.171875 -31.640625 L 22.25 -31.640625 L 14.625 -25.578125 L 9.46875 -25.578125 Z M 15.171875 -31.640625 "/></g></g></g><g fill="#ffffff" fill-opacity="1"><g transform="translate(220.145404, 211.519729)"><g><path d="M 32.0625 -23.015625 C 34.90625 -23.015625 37.160156 -22.175781 38.828125 -20.5 C 40.503906 -18.832031 41.34375 -16.328125 41.34375 -12.984375 L 41.34375 0 L 34.765625 0 L 34.765625 -11.96875 C 34.765625 -13.769531 34.390625 -15.109375 33.640625 -15.984375 C 32.898438 -16.867188 31.84375 -17.3125 30.46875 -17.3125 C 28.925781 -17.3125 27.703125 -16.8125 26.796875 -15.8125 C 25.898438 -14.820312 25.453125 -13.34375 25.453125 -11.375 L 25.453125 0 L 18.875 0 L 18.875 -11.96875 C 18.875 -15.53125 17.441406 -17.3125 14.578125 -17.3125 C 13.066406 -17.3125 11.859375 -16.8125 10.953125 -15.8125 C 10.054688 -14.820312 9.609375 -13.34375 9.609375 -11.375 L 9.609375 0 L 3.03125 0 L 3.03125 -22.671875 L 9.3125 -22.671875 L 9.3125 -20.0625 C 10.15625 -21.007812 11.1875 -21.738281 12.40625 -22.25 C 13.632812 -22.757812 14.976562 -23.015625 16.4375 -23.015625 C 18.039062 -23.015625 19.488281 -22.695312 20.78125 -22.0625 C 22.070312 -21.425781 23.109375 -20.503906 23.890625 -19.296875 C 24.816406 -20.484375 25.988281 -21.398438 27.40625 -22.046875 C 28.832031 -22.691406 30.382812 -23.015625 32.0625 -23.015625 Z M 32.0625 -23.015625 "/></g></g></g><g fill="#ffffff" fill-opacity="1"><g transform="translate(266.586566, 211.519729)"><g><path d="M 3.03125 -22.671875 L 9.609375 -22.671875 L 9.609375 0 L 3.03125 0 Z M 6.328125 -25.828125 C 5.117188 -25.828125 4.132812 -26.175781 3.375 -26.875 C 2.613281 -27.582031 2.234375 -28.457031 2.234375 -29.5 C 2.234375 -30.539062 2.613281 -31.410156 3.375 -32.109375 C 4.132812 -32.816406 5.117188 -33.171875 6.328125 -33.171875 C 7.535156 -33.171875 8.519531 -32.832031 9.28125 -32.15625 C 10.039062 -31.476562 10.421875 -30.632812 10.421875 -29.625 C 10.421875 -28.53125 10.039062 -27.625 9.28125 -26.90625 C 8.519531 -26.1875 7.535156 -25.828125 6.328125 -25.828125 Z M 6.328125 -25.828125 "/></g></g></g><g fill="#ffffff" fill-opacity="1"><g transform="translate(281.505128, 211.519729)"><g><path d="M 16.8125 -23.015625 C 19.625 -23.015625 21.894531 -22.171875 23.625 -20.484375 C 25.351562 -18.796875 26.21875 -16.296875 26.21875 -12.984375 L 26.21875 0 L 19.640625 0 L 19.640625 -11.96875 C 19.640625 -13.769531 19.242188 -15.109375 18.453125 -15.984375 C 17.671875 -16.867188 16.535156 -17.3125 15.046875 -17.3125 C 13.390625 -17.3125 12.066406 -16.800781 11.078125 -15.78125 C 10.097656 -14.757812 9.609375 -13.234375 9.609375 -11.203125 L 9.609375 0 L 3.03125 0 L 3.03125 -22.671875 L 9.3125 -22.671875 L 9.3125 -20.015625 C 10.1875 -20.972656 11.269531 -21.710938 12.5625 -22.234375 C 13.851562 -22.753906 15.269531 -23.015625 16.8125 -23.015625 Z M 16.8125 -23.015625 "/></g></g></g><g fill="#ffffff" fill-opacity="1"><g transform="translate(312.859267, 211.519729)"><g><path d="M 3.03125 -22.671875 L 9.609375 -22.671875 L 9.609375 0 L 3.03125 0 Z M 6.328125 -25.828125 C 5.117188 -25.828125 4.132812 -26.175781 3.375 -26.875 C 2.613281 -27.582031 2.234375 -28.457031 2.234375 -29.5 C 2.234375 -30.539062 2.613281 -31.410156 3.375 -32.109375 C 4.132812 -32.816406 5.117188 -33.171875 6.328125 -33.171875 C 7.535156 -33.171875 8.519531 -32.832031 9.28125 -32.15625 C 10.039062 -31.476562 10.421875 -30.632812 10.421875 -29.625 C 10.421875 -28.53125 10.039062 -27.625 9.28125 -26.90625 C 8.519531 -26.1875 7.535156 -25.828125 6.328125 -25.828125 Z M 6.328125 -25.828125 "/></g></g></g><g fill="#ffffff" fill-opacity="1"><g transform="translate(327.777828, 211.519729)"><g><path d="M 16.8125 -23.015625 C 19.625 -23.015625 21.894531 -22.171875 23.625 -20.484375 C 25.351562 -18.796875 26.21875 -16.296875 26.21875 -12.984375 L 26.21875 0 L 19.640625 0 L 19.640625 -11.96875 C 19.640625 -13.769531 19.242188 -15.109375 18.453125 -15.984375 C 17.671875 -16.867188 16.535156 -17.3125 15.046875 -17.3125 C 13.390625 -17.3125 12.066406 -16.800781 11.078125 -15.78125 C 10.097656 -14.757812 9.609375 -13.234375 9.609375 -11.203125 L 9.609375 0 L 3.03125 0 L 3.03125 -22.671875 L 9.3125 -22.671875 L 9.3125 -20.015625 C 10.1875 -20.972656 11.269531 -21.710938 12.5625 -22.234375 C 13.851562 -22.753906 15.269531 -23.015625 16.8125 -23.015625 Z M 16.8125 -23.015625 "/></g></g></g><g fill="#ffffff" fill-opacity="1"><g transform="translate(359.131955, 211.519729)"><g><path d="M 25.25 -11.25 C 25.25 -11.164062 25.203125 -10.578125 25.109375 -9.484375 L 7.96875 -9.484375 C 8.269531 -8.078125 9 -6.96875 10.15625 -6.15625 C 11.3125 -5.34375 12.742188 -4.9375 14.453125 -4.9375 C 15.628906 -4.9375 16.675781 -5.109375 17.59375 -5.453125 C 18.507812 -5.804688 19.359375 -6.363281 20.140625 -7.125 L 23.640625 -3.328125 C 21.503906 -0.878906 18.382812 0.34375 14.28125 0.34375 C 11.726562 0.34375 9.46875 -0.15625 7.5 -1.15625 C 5.53125 -2.15625 4.007812 -3.539062 2.9375 -5.3125 C 1.875 -7.082031 1.34375 -9.085938 1.34375 -11.328125 C 1.34375 -13.554688 1.867188 -15.5625 2.921875 -17.34375 C 3.984375 -19.125 5.429688 -20.515625 7.265625 -21.515625 C 9.109375 -22.515625 11.164062 -23.015625 13.4375 -23.015625 C 15.65625 -23.015625 17.664062 -22.535156 19.46875 -21.578125 C 21.269531 -20.617188 22.679688 -19.25 23.703125 -17.46875 C 24.734375 -15.6875 25.25 -13.613281 25.25 -11.25 Z M 13.484375 -18.03125 C 11.992188 -18.03125 10.742188 -17.609375 9.734375 -16.765625 C 8.722656 -15.921875 8.101562 -14.769531 7.875 -13.3125 L 19.046875 -13.3125 C 18.816406 -14.75 18.195312 -15.894531 17.1875 -16.75 C 16.175781 -17.601562 14.941406 -18.03125 13.484375 -18.03125 Z M 13.484375 -18.03125 "/></g></g></g><g fill="#ffffff" fill-opacity="1"><g transform="translate(131.372566, 280.516034)"><g><path d="M 9.8125 -9.75 L 5.5625 -5.453125 L 5.5625 0 L 3.375 0 L 3.375 -20.734375 L 5.5625 -20.734375 L 5.5625 -8.203125 L 17.75 -20.734375 L 20.265625 -20.734375 L 11.28125 -11.34375 L 20.890625 0 L 18.28125 0 Z M 9.8125 -9.75 "/></g></g></g><g fill="#ffffff" fill-opacity="1"><g transform="translate(154.00441, 280.516034)"><g><path d="M 3.171875 -22.125 C 3.617188 -22.125 3.988281 -21.972656 4.28125 -21.671875 C 4.582031 -21.367188 4.734375 -20.988281 4.734375 -20.53125 C 4.734375 -20.289062 4.695312 -20.035156 4.625 -19.765625 C 4.5625 -19.503906 4.472656 -19.195312 4.359375 -18.84375 L 3.078125 -14.75 L 1.65625 -14.75 L 2.703125 -19.015625 C 2.359375 -19.117188 2.085938 -19.300781 1.890625 -19.5625 C 1.691406 -19.832031 1.59375 -20.15625 1.59375 -20.53125 C 1.59375 -21 1.738281 -21.378906 2.03125 -21.671875 C 2.332031 -21.972656 2.710938 -22.125 3.171875 -22.125 Z M 3.171875 -22.125 "/></g></g></g><g fill="#ffffff" fill-opacity="1"><g transform="translate(161.855077, 280.516034)"><g><path d="M 9.09375 0.171875 C 7.550781 0.171875 6.070312 -0.0703125 4.65625 -0.5625 C 3.25 -1.050781 2.160156 -1.703125 1.390625 -2.515625 L 2.25 -4.203125 C 3 -3.453125 3.992188 -2.84375 5.234375 -2.375 C 6.484375 -1.914062 7.769531 -1.6875 9.09375 -1.6875 C 10.945312 -1.6875 12.335938 -2.023438 13.265625 -2.703125 C 14.203125 -3.390625 14.671875 -4.273438 14.671875 -5.359375 C 14.671875 -6.191406 14.414062 -6.851562 13.90625 -7.34375 C 13.40625 -7.84375 12.789062 -8.222656 12.0625 -8.484375 C 11.332031 -8.753906 10.3125 -9.046875 9 -9.359375 C 7.445312 -9.753906 6.203125 -10.132812 5.265625 -10.5 C 4.335938 -10.863281 3.539062 -11.421875 2.875 -12.171875 C 2.21875 -12.921875 1.890625 -13.941406 1.890625 -15.234375 C 1.890625 -16.273438 2.164062 -17.222656 2.71875 -18.078125 C 3.28125 -18.941406 4.128906 -19.628906 5.265625 -20.140625 C 6.410156 -20.660156 7.835938 -20.921875 9.546875 -20.921875 C 10.722656 -20.921875 11.878906 -20.753906 13.015625 -20.421875 C 14.148438 -20.097656 15.132812 -19.648438 15.96875 -19.078125 L 15.234375 -17.328125 C 14.359375 -17.898438 13.425781 -18.328125 12.4375 -18.609375 C 11.457031 -18.898438 10.492188 -19.046875 9.546875 -19.046875 C 7.722656 -19.046875 6.351562 -18.695312 5.4375 -18 C 4.519531 -17.300781 4.0625 -16.394531 4.0625 -15.28125 C 4.0625 -14.457031 4.3125 -13.789062 4.8125 -13.28125 C 5.3125 -12.78125 5.941406 -12.394531 6.703125 -12.125 C 7.460938 -11.863281 8.488281 -11.570312 9.78125 -11.25 C 11.300781 -10.875 12.53125 -10.503906 13.46875 -10.140625 C 14.40625 -9.773438 15.195312 -9.222656 15.84375 -8.484375 C 16.5 -7.742188 16.828125 -6.742188 16.828125 -5.484375 C 16.828125 -4.429688 16.546875 -3.472656 15.984375 -2.609375 C 15.421875 -1.753906 14.554688 -1.078125 13.390625 -0.578125 C 12.222656 -0.078125 10.789062 0.171875 9.09375 0.171875 Z M 9.09375 0.171875 "/></g></g></g><g fill="#ffffff" fill-opacity="1"><g transform="translate(181.643243, 280.516034)"><g><path d="M 12.390625 0.171875 C 10.328125 0.171875 8.472656 -0.28125 6.828125 -1.1875 C 5.179688 -2.09375 3.890625 -3.347656 2.953125 -4.953125 C 2.015625 -6.566406 1.546875 -8.375 1.546875 -10.375 C 1.546875 -12.363281 2.015625 -14.160156 2.953125 -15.765625 C 3.890625 -17.378906 5.1875 -18.640625 6.84375 -19.546875 C 8.5 -20.460938 10.351562 -20.921875 12.40625 -20.921875 C 13.945312 -20.921875 15.367188 -20.660156 16.671875 -20.140625 C 17.984375 -19.628906 19.09375 -18.878906 20 -17.890625 L 18.609375 -16.5 C 16.984375 -18.132812 14.9375 -18.953125 12.46875 -18.953125 C 10.832031 -18.953125 9.34375 -18.578125 8 -17.828125 C 6.65625 -17.078125 5.601562 -16.050781 4.84375 -14.75 C 4.082031 -13.445312 3.703125 -11.988281 3.703125 -10.375 C 3.703125 -8.75 4.082031 -7.285156 4.84375 -5.984375 C 5.601562 -4.679688 6.65625 -3.65625 8 -2.90625 C 9.34375 -2.15625 10.832031 -1.78125 12.46875 -1.78125 C 14.957031 -1.78125 17.003906 -2.609375 18.609375 -4.265625 L 20 -2.875 C 19.09375 -1.882812 17.976562 -1.128906 16.65625 -0.609375 C 15.34375 -0.0859375 13.921875 0.171875 12.390625 0.171875 Z M 12.390625 0.171875 "/></g></g></g><g fill="#ffffff" fill-opacity="1"><g transform="translate(204.512065, 280.516034)"><g><path d="M 12.4375 0.171875 C 10.382812 0.171875 8.523438 -0.285156 6.859375 -1.203125 C 5.191406 -2.117188 3.890625 -3.375 2.953125 -4.96875 C 2.015625 -6.570312 1.546875 -8.375 1.546875 -10.375 C 1.546875 -12.363281 2.015625 -14.15625 2.953125 -15.75 C 3.890625 -17.351562 5.191406 -18.613281 6.859375 -19.53125 C 8.523438 -20.457031 10.382812 -20.921875 12.4375 -20.921875 C 14.5 -20.921875 16.351562 -20.460938 18 -19.546875 C 19.644531 -18.640625 20.941406 -17.378906 21.890625 -15.765625 C 22.835938 -14.160156 23.3125 -12.363281 23.3125 -10.375 C 23.3125 -8.375 22.835938 -6.566406 21.890625 -4.953125 C 20.941406 -3.347656 19.644531 -2.09375 18 -1.1875 C 16.351562 -0.28125 14.5 0.171875 12.4375 0.171875 Z M 12.4375 -1.78125 C 14.082031 -1.78125 15.566406 -2.148438 16.890625 -2.890625 C 18.210938 -3.628906 19.25 -4.65625 20 -5.96875 C 20.75 -7.28125 21.125 -8.75 21.125 -10.375 C 21.125 -11.988281 20.75 -13.453125 20 -14.765625 C 19.25 -16.078125 18.210938 -17.101562 16.890625 -17.84375 C 15.566406 -18.582031 14.082031 -18.953125 12.4375 -18.953125 C 10.800781 -18.953125 9.316406 -18.582031 7.984375 -17.84375 C 6.648438 -17.101562 5.601562 -16.078125 4.84375 -14.765625 C 4.082031 -13.453125 3.703125 -11.988281 3.703125 -10.375 C 3.703125 -8.75 4.082031 -7.28125 4.84375 -5.96875 C 5.601562 -4.65625 6.648438 -3.628906 7.984375 -2.890625 C 9.316406 -2.148438 10.800781 -1.78125 12.4375 -1.78125 Z M 12.4375 -1.78125 "/></g></g></g><g fill="#ffffff" fill-opacity="1"><g transform="translate(230.935473, 280.516034)"><g><path d="M 3.375 -20.734375 L 5.5625 -20.734375 L 5.5625 -1.890625 L 17.1875 -1.890625 L 17.1875 0 L 3.375 0 Z M 3.375 -20.734375 "/></g></g></g><g fill="#ffffff" fill-opacity="1"><g transform="translate(249.95348, 280.516034)"><g><path d="M 7.40625 -18.84375 L 0.125 -18.84375 L 0.125 -20.734375 L 16.890625 -20.734375 L 16.890625 -18.84375 L 9.59375 -18.84375 L 9.59375 0 L 7.40625 0 Z M 7.40625 -18.84375 "/></g></g></g><g fill="#ffffff" fill-opacity="1"><g transform="translate(268.52717, 280.516034)"><g><path d="M 16.375 -5.546875 L 4.828125 -5.546875 L 2.34375 0 L 0.0625 0 L 9.546875 -20.734375 L 11.703125 -20.734375 L 21.1875 0 L 18.875 0 Z M 15.578125 -7.3125 L 10.609375 -18.453125 L 5.625 -7.3125 Z M 15.578125 -7.3125 "/></g></g></g><g fill="#ffffff" fill-opacity="1"><g transform="translate(291.336741, 280.516034)"><g/></g></g><g fill="#ffffff" fill-opacity="1"><g transform="translate(300.668487, 280.516034)"><g><path d="M 24.921875 -20.734375 L 24.921875 0 L 22.8125 0 L 22.8125 -16.59375 L 14.671875 -2.640625 L 13.625 -2.640625 L 5.484375 -16.5 L 5.484375 0 L 3.375 0 L 3.375 -20.734375 L 5.1875 -20.734375 L 14.1875 -5.359375 L 23.109375 -20.734375 Z M 24.921875 -20.734375 "/></g></g></g><g fill="#ffffff" fill-opacity="1"><g transform="translate(330.527981, 280.516034)"><g><path d="M 11.734375 0.171875 C 9.046875 0.171875 6.953125 -0.59375 5.453125 -2.125 C 3.953125 -3.664062 3.203125 -5.910156 3.203125 -8.859375 L 3.203125 -20.734375 L 5.390625 -20.734375 L 5.390625 -8.953125 C 5.390625 -6.535156 5.929688 -4.734375 7.015625 -3.546875 C 8.109375 -2.367188 9.679688 -1.78125 11.734375 -1.78125 C 13.804688 -1.78125 15.382812 -2.367188 16.46875 -3.546875 C 17.550781 -4.734375 18.09375 -6.535156 18.09375 -8.953125 L 18.09375 -20.734375 L 20.234375 -20.734375 L 20.234375 -8.859375 C 20.234375 -5.910156 19.488281 -3.664062 18 -2.125 C 16.507812 -0.59375 14.421875 0.171875 11.734375 0.171875 Z M 11.734375 0.171875 "/></g></g></g><g fill="#ffffff" fill-opacity="1"><g transform="translate(355.559198, 280.516034)"><g><path d="M 9.09375 0.171875 C 7.550781 0.171875 6.070312 -0.0703125 4.65625 -0.5625 C 3.25 -1.050781 2.160156 -1.703125 1.390625 -2.515625 L 2.25 -4.203125 C 3 -3.453125 3.992188 -2.84375 5.234375 -2.375 C 6.484375 -1.914062 7.769531 -1.6875 9.09375 -1.6875 C 10.945312 -1.6875 12.335938 -2.023438 13.265625 -2.703125 C 14.203125 -3.390625 14.671875 -4.273438 14.671875 -5.359375 C 14.671875 -6.191406 14.414062 -6.851562 13.90625 -7.34375 C 13.40625 -7.84375 12.789062 -8.222656 12.0625 -8.484375 C 11.332031 -8.753906 10.3125 -9.046875 9 -9.359375 C 7.445312 -9.753906 6.203125 -10.132812 5.265625 -10.5 C 4.335938 -10.863281 3.539062 -11.421875 2.875 -12.171875 C 2.21875 -12.921875 1.890625 -13.941406 1.890625 -15.234375 C 1.890625 -16.273438 2.164062 -17.222656 2.71875 -18.078125 C 3.28125 -18.941406 4.128906 -19.628906 5.265625 -20.140625 C 6.410156 -20.660156 7.835938 -20.921875 9.546875 -20.921875 C 10.722656 -20.921875 11.878906 -20.753906 13.015625 -20.421875 C 14.148438 -20.097656 15.132812 -19.648438 15.96875 -19.078125 L 15.234375 -17.328125 C 14.359375 -17.898438 13.425781 -18.328125 12.4375 -18.609375 C 11.457031 -18.898438 10.492188 -19.046875 9.546875 -19.046875 C 7.722656 -19.046875 6.351562 -18.695312 5.4375 -18 C 4.519531 -17.300781 4.0625 -16.394531 4.0625 -15.28125 C 4.0625 -14.457031 4.3125 -13.789062 4.8125 -13.28125 C 5.3125 -12.78125 5.941406 -12.394531 6.703125 -12.125 C 7.460938 -11.863281 8.488281 -11.570312 9.78125 -11.25 C 11.300781 -10.875 12.53125 -10.503906 13.46875 -10.140625 C 14.40625 -9.773438 15.195312 -9.222656 15.84375 -8.484375 C 16.5 -7.742188 16.828125 -6.742188 16.828125 -5.484375 C 16.828125 -4.429688 16.546875 -3.472656 15.984375 -2.609375 C 15.421875 -1.753906 14.554688 -1.078125 13.390625 -0.578125 C 12.222656 -0.078125 10.789062 0.171875 9.09375 0.171875 Z M 9.09375 0.171875 "/></g></g></g><g fill="#ffffff" fill-opacity="1"><g transform="translate(375.347364, 280.516034)"><g><path d="M 3.375 -20.734375 L 5.5625 -20.734375 L 5.5625 0 L 3.375 0 Z M 3.375 -20.734375 "/></g></g></g><g fill="#ffffff" fill-opacity="1"><g transform="translate(385.86396, 280.516034)"><g><path d="M 12.390625 0.171875 C 10.328125 0.171875 8.472656 -0.28125 6.828125 -1.1875 C 5.179688 -2.09375 3.890625 -3.347656 2.953125 -4.953125 C 2.015625 -6.566406 1.546875 -8.375 1.546875 -10.375 C 1.546875 -12.363281 2.015625 -14.160156 2.953125 -15.765625 C 3.890625 -17.378906 5.1875 -18.640625 6.84375 -19.546875 C 8.5 -20.460938 10.351562 -20.921875 12.40625 -20.921875 C 13.945312 -20.921875 15.367188 -20.660156 16.671875 -20.140625 C 17.984375 -19.628906 19.09375 -18.878906 20 -17.890625 L 18.609375 -16.5 C 16.984375 -18.132812 14.9375 -18.953125 12.46875 -18.953125 C 10.832031 -18.953125 9.34375 -18.578125 8 -17.828125 C 6.65625 -17.078125 5.601562 -16.050781 4.84375 -14.75 C 4.082031 -13.445312 3.703125 -11.988281 3.703125 -10.375 C 3.703125 -8.75 4.082031 -7.285156 4.84375 -5.984375 C 5.601562 -4.679688 6.65625 -3.65625 8 -2.90625 C 9.34375 -2.15625 10.832031 -1.78125 12.46875 -1.78125 C 14.957031 -1.78125 17.003906 -2.609375 18.609375 -4.265625 L 20 -2.875 C 19.09375 -1.882812 17.976562 -1.128906 16.65625 -0.609375 C 15.34375 -0.0859375 13.921875 0.171875 12.390625 0.171875 Z M 12.390625 0.171875 "/></g></g></g><g fill="#ffffff" fill-opacity="1"><g transform="translate(408.741891, 280.516034)"><g/></g></g><g fill="#ffffff" fill-opacity="1"><g transform="translate(200.266884, 321.744867)"><g><path d="M 16.375 -5.546875 L 4.828125 -5.546875 L 2.34375 0 L 0.0625 0 L 9.546875 -20.734375 L 11.703125 -20.734375 L 21.1875 0 L 18.875 0 Z M 15.578125 -7.3125 L 10.609375 -18.453125 L 5.625 -7.3125 Z M 15.578125 -7.3125 "/></g></g></g><g fill="#ffffff" fill-opacity="1"><g transform="translate(223.076455, 321.744867)"><g><path d="M 31.84375 -20.734375 L 24.859375 0 L 22.546875 0 L 16.46875 -17.6875 L 10.375 0 L 8.09375 0 L 1.09375 -20.734375 L 3.34375 -20.734375 L 9.328125 -2.90625 L 15.53125 -20.734375 L 17.5625 -20.734375 L 23.671875 -2.8125 L 29.75 -20.734375 Z M 31.84375 -20.734375 "/></g></g></g><g fill="#ffffff" fill-opacity="1"><g transform="translate(257.556934, 321.744867)"><g><path d="M 16.375 -5.546875 L 4.828125 -5.546875 L 2.34375 0 L 0.0625 0 L 9.546875 -20.734375 L 11.703125 -20.734375 L 21.1875 0 L 18.875 0 Z M 15.578125 -7.3125 L 10.609375 -18.453125 L 5.625 -7.3125 Z M 15.578125 -7.3125 "/></g></g></g><g fill="#ffffff" fill-opacity="1"><g transform="translate(280.366505, 321.744867)"><g><path d="M 17.53125 0 L 12.796875 -6.671875 C 12.265625 -6.609375 11.710938 -6.578125 11.140625 -6.578125 L 5.5625 -6.578125 L 5.5625 0 L 3.375 0 L 3.375 -20.734375 L 11.140625 -20.734375 C 13.785156 -20.734375 15.859375 -20.101562 17.359375 -18.84375 C 18.859375 -17.582031 19.609375 -15.84375 19.609375 -13.625 C 19.609375 -12.007812 19.195312 -10.640625 18.375 -9.515625 C 17.5625 -8.398438 16.394531 -7.597656 14.875 -7.109375 L 19.9375 0 Z M 11.078125 -8.4375 C 13.128906 -8.4375 14.695312 -8.890625 15.78125 -9.796875 C 16.875 -10.710938 17.421875 -11.988281 17.421875 -13.625 C 17.421875 -15.300781 16.875 -16.585938 15.78125 -17.484375 C 14.695312 -18.390625 13.128906 -18.84375 11.078125 -18.84375 L 5.5625 -18.84375 L 5.5625 -8.4375 Z M 11.078125 -8.4375 "/></g></g></g><g fill="#ffffff" fill-opacity="1"><g transform="translate(303.353803, 321.744867)"><g><path d="M 3.375 -20.734375 L 11.828125 -20.734375 C 14.015625 -20.734375 15.945312 -20.289062 17.625 -19.40625 C 19.300781 -18.53125 20.601562 -17.304688 21.53125 -15.734375 C 22.46875 -14.171875 22.9375 -12.382812 22.9375 -10.375 C 22.9375 -8.351562 22.46875 -6.554688 21.53125 -4.984375 C 20.601562 -3.421875 19.300781 -2.195312 17.625 -1.3125 C 15.945312 -0.4375 14.015625 0 11.828125 0 L 3.375 0 Z M 11.703125 -1.890625 C 13.515625 -1.890625 15.101562 -2.25 16.46875 -2.96875 C 17.832031 -3.695312 18.890625 -4.695312 19.640625 -5.96875 C 20.390625 -7.238281 20.765625 -8.707031 20.765625 -10.375 C 20.765625 -12.03125 20.390625 -13.492188 19.640625 -14.765625 C 18.890625 -16.035156 17.832031 -17.03125 16.46875 -17.75 C 15.101562 -18.476562 13.515625 -18.84375 11.703125 -18.84375 L 5.5625 -18.84375 L 5.5625 -1.890625 Z M 11.703125 -1.890625 "/></g></g></g><g fill="#ffffff" fill-opacity="1"><g transform="translate(329.392132, 321.744867)"><g><path d="M 9.09375 0.171875 C 7.550781 0.171875 6.070312 -0.0703125 4.65625 -0.5625 C 3.25 -1.050781 2.160156 -1.703125 1.390625 -2.515625 L 2.25 -4.203125 C 3 -3.453125 3.992188 -2.84375 5.234375 -2.375 C 6.484375 -1.914062 7.769531 -1.6875 9.09375 -1.6875 C 10.945312 -1.6875 12.335938 -2.023438 13.265625 -2.703125 C 14.203125 -3.390625 14.671875 -4.273438 14.671875 -5.359375 C 14.671875 -6.191406 14.414062 -6.851562 13.90625 -7.34375 C 13.40625 -7.84375 12.789062 -8.222656 12.0625 -8.484375 C 11.332031 -8.753906 10.3125 -9.046875 9 -9.359375 C 7.445312 -9.753906 6.203125 -10.132812 5.265625 -10.5 C 4.335938 -10.863281 3.539062 -11.421875 2.875 -12.171875 C 2.21875 -12.921875 1.890625 -13.941406 1.890625 -15.234375 C 1.890625 -16.273438 2.164062 -17.222656 2.71875 -18.078125 C 3.28125 -18.941406 4.128906 -19.628906 5.265625 -20.140625 C 6.410156 -20.660156 7.835938 -20.921875 9.546875 -20.921875 C 10.722656 -20.921875 11.878906 -20.753906 13.015625 -20.421875 C 14.148438 -20.097656 15.132812 -19.648438 15.96875 -19.078125 L 15.234375 -17.328125 C 14.359375 -17.898438 13.425781 -18.328125 12.4375 -18.609375 C 11.457031 -18.898438 10.492188 -19.046875 9.546875 -19.046875 C 7.722656 -19.046875 6.351562 -18.695312 5.4375 -18 C 4.519531 -17.300781 4.0625 -16.394531 4.0625 -15.28125 C 4.0625 -14.457031 4.3125 -13.789062 4.8125 -13.28125 C 5.3125 -12.78125 5.941406 -12.394531 6.703125 -12.125 C 7.460938 -11.863281 8.488281 -11.570312 9.78125 -11.25 C 11.300781 -10.875 12.53125 -10.503906 13.46875 -10.140625 C 14.40625 -9.773438 15.195312 -9.222656 15.84375 -8.484375 C 16.5 -7.742188 16.828125 -6.742188 16.828125 -5.484375 C 16.828125 -4.429688 16.546875 -3.472656 15.984375 -2.609375 C 15.421875 -1.753906 14.554688 -1.078125 13.390625 -0.578125 C 12.222656 -0.078125 10.789062 0.171875 9.09375 0.171875 Z M 9.09375 0.171875 "/></g></g></g><g fill="#ffffff" fill-opacity="1"><g transform="translate(236.658361, 362.973701)"><g><path d="M 15.703125 -1.890625 L 15.703125 0 L 1.15625 0 L 1.15625 -1.515625 L 9.78125 -9.953125 C 10.863281 -11.015625 11.597656 -11.9375 11.984375 -12.71875 C 12.367188 -13.5 12.5625 -14.285156 12.5625 -15.078125 C 12.5625 -16.304688 12.140625 -17.257812 11.296875 -17.9375 C 10.460938 -18.613281 9.265625 -18.953125 7.703125 -18.953125 C 5.273438 -18.953125 3.390625 -18.1875 2.046875 -16.65625 L 0.53125 -17.953125 C 1.34375 -18.898438 2.375 -19.628906 3.625 -20.140625 C 4.882812 -20.660156 6.300781 -20.921875 7.875 -20.921875 C 9.988281 -20.921875 11.660156 -20.421875 12.890625 -19.421875 C 14.128906 -18.421875 14.75 -17.050781 14.75 -15.3125 C 14.75 -14.25 14.507812 -13.222656 14.03125 -12.234375 C 13.5625 -11.242188 12.664062 -10.109375 11.34375 -8.828125 L 4.296875 -1.890625 Z M 15.703125 -1.890625 "/></g></g></g><g fill="#ffffff" fill-opacity="1"><g transform="translate(254.935778, 362.973701)"><g><path d="M 9.8125 0.171875 C 8.207031 0.171875 6.773438 -0.25 5.515625 -1.09375 C 4.265625 -1.945312 3.289062 -3.164062 2.59375 -4.75 C 1.894531 -6.34375 1.546875 -8.21875 1.546875 -10.375 C 1.546875 -12.519531 1.894531 -14.390625 2.59375 -15.984375 C 3.289062 -17.578125 4.265625 -18.796875 5.515625 -19.640625 C 6.773438 -20.492188 8.207031 -20.921875 9.8125 -20.921875 C 11.40625 -20.921875 12.828125 -20.492188 14.078125 -19.640625 C 15.335938 -18.796875 16.320312 -17.578125 17.03125 -15.984375 C 17.738281 -14.390625 18.09375 -12.519531 18.09375 -10.375 C 18.09375 -8.21875 17.738281 -6.34375 17.03125 -4.75 C 16.320312 -3.164062 15.335938 -1.945312 14.078125 -1.09375 C 12.828125 -0.25 11.40625 0.171875 9.8125 0.171875 Z M 9.8125 -1.78125 C 11.007812 -1.78125 12.066406 -2.113281 12.984375 -2.78125 C 13.910156 -3.457031 14.628906 -4.4375 15.140625 -5.71875 C 15.648438 -7 15.90625 -8.550781 15.90625 -10.375 C 15.90625 -12.1875 15.648438 -13.734375 15.140625 -15.015625 C 14.628906 -16.304688 13.910156 -17.285156 12.984375 -17.953125 C 12.066406 -18.617188 11.007812 -18.953125 9.8125 -18.953125 C 8.601562 -18.953125 7.539062 -18.617188 6.625 -17.953125 C 5.707031 -17.285156 4.988281 -16.304688 4.46875 -15.015625 C 3.957031 -13.734375 3.703125 -12.1875 3.703125 -10.375 C 3.703125 -8.550781 3.957031 -7 4.46875 -5.71875 C 4.988281 -4.4375 5.707031 -3.457031 6.625 -2.78125 C 7.539062 -2.113281 8.601562 -1.78125 9.8125 -1.78125 Z M 9.8125 -1.78125 "/></g></g></g><g fill="#ffffff" fill-opacity="1"><g transform="translate(276.056897, 362.973701)"><g><path d="M 15.703125 -1.890625 L 15.703125 0 L 1.15625 0 L 1.15625 -1.515625 L 9.78125 -9.953125 C 10.863281 -11.015625 11.597656 -11.9375 11.984375 -12.71875 C 12.367188 -13.5 12.5625 -14.285156 12.5625 -15.078125 C 12.5625 -16.304688 12.140625 -17.257812 11.296875 -17.9375 C 10.460938 -18.613281 9.265625 -18.953125 7.703125 -18.953125 C 5.273438 -18.953125 3.390625 -18.1875 2.046875 -16.65625 L 0.53125 -17.953125 C 1.34375 -18.898438 2.375 -19.628906 3.625 -20.140625 C 4.882812 -20.660156 6.300781 -20.921875 7.875 -20.921875 C 9.988281 -20.921875 11.660156 -20.421875 12.890625 -19.421875 C 14.128906 -18.421875 14.75 -17.050781 14.75 -15.3125 C 14.75 -14.25 14.507812 -13.222656 14.03125 -12.234375 C 13.5625 -11.242188 12.664062 -10.109375 11.34375 -8.828125 L 4.296875 -1.890625 Z M 15.703125 -1.890625 "/></g></g></g><g fill="#ffffff" fill-opacity="1"><g transform="translate(294.452848, 362.973701)"><g><path d="M 6.984375 -12.234375 C 9.992188 -12.234375 12.179688 -11.691406 13.546875 -10.609375 C 14.921875 -9.535156 15.609375 -8.035156 15.609375 -6.109375 C 15.609375 -4.898438 15.328125 -3.820312 14.765625 -2.875 C 14.203125 -1.925781 13.359375 -1.179688 12.234375 -0.640625 C 11.109375 -0.0976562 9.726562 0.171875 8.09375 0.171875 C 6.601562 0.171875 5.191406 -0.0664062 3.859375 -0.546875 C 2.523438 -1.035156 1.457031 -1.679688 0.65625 -2.484375 L 1.6875 -4.171875 C 2.375 -3.460938 3.28125 -2.882812 4.40625 -2.4375 C 5.539062 -2 6.757812 -1.78125 8.0625 -1.78125 C 9.78125 -1.78125 11.109375 -2.164062 12.046875 -2.9375 C 12.984375 -3.707031 13.453125 -4.734375 13.453125 -6.015625 C 13.453125 -7.429688 12.921875 -8.503906 11.859375 -9.234375 C 10.804688 -9.972656 9.023438 -10.34375 6.515625 -10.34375 L 2.109375 -10.34375 L 3.171875 -20.734375 L 14.515625 -20.734375 L 14.515625 -18.84375 L 5.03125 -18.84375 L 4.328125 -12.234375 Z M 6.984375 -12.234375 "/></g></g></g></g></g></svg>